<?xml version="1.0" encoding="UTF-8" standalone="no"?>
<!DOCTYPE svg PUBLIC "-//W3C//DTD SVG 1.1//EN"
 "http://www.w3.org/Graphics/SVG/1.1/DTD/svg11.dtd">
<!-- Generated by graphviz version 2.40.1 (20161225.0304)
 -->
<!-- Title: %3 Pages: 1 -->
<svg width="2098pt" height="332pt"
 viewBox="0.00 0.00 2098.28 332.00" xmlns="http://www.w3.org/2000/svg" xmlns:xlink="http://www.w3.org/1999/xlink">
<g id="graph0" class="graph" transform="scale(1 1) rotate(0) translate(4 328)">
<title>%3</title>
<polygon fill="#ffffff" stroke="transparent" points="-4,4 -4,-328 2094.283,-328 2094.283,4 -4,4"/>
<!-- [root] aws_iam_policy.pass_through_policy -->
<g id="node1" class="node">
<title>[root] aws_iam_policy.pass_through_policy</title>
<polygon fill="none" stroke="#000000" points="503.7567,-180 276.7469,-180 276.7469,-144 503.7567,-144 503.7567,-180"/>
<text text-anchor="middle" x="390.2518" y="-157.8" font-family="Times,serif" font-size="14.00" fill="#000000">aws_iam_policy.pass_through_policy</text>
</g>
<!-- [root] provider.aws -->
<g id="node9" class="node">
<title>[root] provider.aws</title>
<polygon fill="none" stroke="#000000" points="390.2518,-36 311.6435,-18 390.2518,0 468.8601,-18 390.2518,-36"/>
<text text-anchor="middle" x="390.2518" y="-13.8" font-family="Times,serif" font-size="14.00" fill="#000000">provider.aws</text>
</g>
<!-- [root] aws_iam_policy.pass_through_policy&#45;&gt;[root] provider.aws -->
<g id="edge1" class="edge">
<title>[root] aws_iam_policy.pass_through_policy&#45;&gt;[root] provider.aws</title>
<path fill="none" stroke="#000000" d="M390.2518,-143.7623C390.2518,-119.201 390.2518,-75.2474 390.2518,-46.3541"/>
<polygon fill="#000000" stroke="#000000" points="393.7519,-46.0896 390.2518,-36.0896 386.7519,-46.0897 393.7519,-46.0896"/>
</g>
<!-- [root] aws_iam_policy.unload_role_inline_policy -->
<g id="node2" class="node">
<title>[root] aws_iam_policy.unload_role_inline_policy</title>
<polygon fill="none" stroke="#000000" points="258.3465,-180 .1571,-180 .1571,-144 258.3465,-144 258.3465,-180"/>
<text text-anchor="middle" x="129.2518" y="-157.8" font-family="Times,serif" font-size="14.00" fill="#000000">aws_iam_policy.unload_role_inline_policy</text>
</g>
<!-- [root] aws_iam_role.unload_role -->
<g id="node3" class="node">
<title>[root] aws_iam_role.unload_role</title>
<polygon fill="none" stroke="#000000" points="223.6522,-108 58.8514,-108 58.8514,-72 223.6522,-72 223.6522,-108"/>
<text text-anchor="middle" x="141.2518" y="-85.8" font-family="Times,serif" font-size="14.00" fill="#000000">aws_iam_role.unload_role</text>
</g>
<!-- [root] aws_iam_policy.unload_role_inline_policy&#45;&gt;[root] aws_iam_role.unload_role -->
<g id="edge2" class="edge">
<title>[root] aws_iam_policy.unload_role_inline_policy&#45;&gt;[root] aws_iam_role.unload_role</title>
<path fill="none" stroke="#000000" d="M132.2799,-143.8314C133.5633,-136.131 135.0894,-126.9743 136.5157,-118.4166"/>
<polygon fill="#000000" stroke="#000000" points="139.9912,-118.8526 138.1829,-108.4133 133.0865,-117.7018 139.9912,-118.8526"/>
</g>
<!-- [root] data.template_file.unload_policy_config -->
<g id="node8" class="node">
<title>[root] data.template_file.unload_policy_config</title>
<polygon fill="none" stroke="#000000" points="1694.7562,-108 1453.7474,-108 1453.7474,-72 1694.7562,-72 1694.7562,-108"/>
<text text-anchor="middle" x="1574.2518" y="-85.8" font-family="Times,serif" font-size="14.00" fill="#000000">data.template_file.unload_policy_config</text>
</g>
<!-- [root] aws_iam_policy.unload_role_inline_policy&#45;&gt;[root] data.template_file.unload_policy_config -->
<g id="edge3" class="edge">
<title>[root] aws_iam_policy.unload_role_inline_policy&#45;&gt;[root] data.template_file.unload_policy_config</title>
<path fill="none" stroke="#000000" d="M258.4977,-144.7897C261.4419,-144.5115 264.363,-144.2476 267.2518,-144 696.727,-107.1912 1207.8211,-95.28 1443.4228,-91.5811"/>
<polygon fill="#000000" stroke="#000000" points="1443.8018,-95.0758 1453.7465,-91.4216 1443.6935,-88.0766 1443.8018,-95.0758"/>
</g>
<!-- [root] aws_iam_role.unload_role&#45;&gt;[root] provider.aws -->
<g id="edge4" class="edge">
<title>[root] aws_iam_role.unload_role&#45;&gt;[root] provider.aws</title>
<path fill="none" stroke="#000000" d="M203.7636,-71.9243C247.9877,-59.1366 306.2217,-42.2979 345.7671,-30.863"/>
<polygon fill="#000000" stroke="#000000" points="346.7643,-34.2182 355.3985,-28.0781 344.8198,-27.4936 346.7643,-34.2182"/>
</g>
<!-- [root] var.custom_unload_role_name -->
<g id="node11" class="node">
<title>[root] var.custom_unload_role_name</title>
<ellipse fill="none" stroke="#000000" cx="141.2518" cy="-18" rx="141.004" ry="18"/>
<text text-anchor="middle" x="141.2518" y="-13.8" font-family="Times,serif" font-size="14.00" fill="#000000">[root] var.custom_unload_role_name</text>
</g>
<!-- [root] aws_iam_role.unload_role&#45;&gt;[root] var.custom_unload_role_name -->
<g id="edge5" class="edge">
<title>[root] aws_iam_role.unload_role&#45;&gt;[root] var.custom_unload_role_name</title>
<path fill="none" stroke="#000000" d="M141.2518,-71.8314C141.2518,-64.131 141.2518,-54.9743 141.2518,-46.4166"/>
<polygon fill="#000000" stroke="#000000" points="144.7519,-46.4132 141.2518,-36.4133 137.7519,-46.4133 144.7519,-46.4132"/>
</g>
<!-- [root] aws_s3_bucket.unload_bucket -->
<g id="node4" class="node">
<title>[root] aws_s3_bucket.unload_bucket</title>
<polygon fill="none" stroke="#000000" points="751.2113,-108 563.2922,-108 563.2922,-72 751.2113,-72 751.2113,-108"/>
<text text-anchor="middle" x="657.2518" y="-85.8" font-family="Times,serif" font-size="14.00" fill="#000000">aws_s3_bucket.unload_bucket</text>
</g>
<!-- [root] aws_s3_bucket.unload_bucket&#45;&gt;[root] provider.aws -->
<g id="edge6" class="edge">
<title>[root] aws_s3_bucket.unload_bucket&#45;&gt;[root] provider.aws</title>
<path fill="none" stroke="#000000" d="M590.2211,-71.9243C542.1701,-58.9667 478.6947,-41.8498 436.273,-30.4102"/>
<polygon fill="#000000" stroke="#000000" points="437.0614,-26.9979 426.495,-27.7734 435.2388,-33.7564 437.0614,-26.9979"/>
</g>
<!-- [root] var.custom_unload_bucket_name -->
<g id="node12" class="node">
<title>[root] var.custom_unload_bucket_name</title>
<ellipse fill="none" stroke="#000000" cx="657.2518" cy="-18" rx="151.151" ry="18"/>
<text text-anchor="middle" x="657.2518" y="-13.8" font-family="Times,serif" font-size="14.00" fill="#000000">[root] var.custom_unload_bucket_name</text>
</g>
<!-- [root] aws_s3_bucket.unload_bucket&#45;&gt;[root] var.custom_unload_bucket_name -->
<g id="edge7" class="edge">
<title>[root] aws_s3_bucket.unload_bucket&#45;&gt;[root] var.custom_unload_bucket_name</title>
<path fill="none" stroke="#000000" d="M657.2518,-71.8314C657.2518,-64.131 657.2518,-54.9743 657.2518,-46.4166"/>
<polygon fill="#000000" stroke="#000000" points="660.7519,-46.4132 657.2518,-36.4133 653.7519,-46.4133 660.7519,-46.4132"/>
</g>
<!-- [root] aws_s3_bucket_policy.unload_bucket_policy -->
<g id="node5" class="node">
<title>[root] aws_s3_bucket_policy.unload_bucket_policy</title>
<polygon fill="none" stroke="#000000" points="792.2883,-180 522.2153,-180 522.2153,-144 792.2883,-144 792.2883,-180"/>
<text text-anchor="middle" x="657.2518" y="-157.8" font-family="Times,serif" font-size="14.00" fill="#000000">aws_s3_bucket_policy.unload_bucket_policy</text>
</g>
<!-- [root] aws_s3_bucket_policy.unload_bucket_policy&#45;&gt;[root] aws_s3_bucket.unload_bucket -->
<g id="edge8" class="edge">
<title>[root] aws_s3_bucket_policy.unload_bucket_policy&#45;&gt;[root] aws_s3_bucket.unload_bucket</title>
<path fill="none" stroke="#000000" d="M657.2518,-143.8314C657.2518,-136.131 657.2518,-126.9743 657.2518,-118.4166"/>
<polygon fill="#000000" stroke="#000000" points="660.7519,-118.4132 657.2518,-108.4133 653.7519,-118.4133 660.7519,-118.4132"/>
</g>
<!-- [root] data.template_file.pass_through_policy_config -->
<g id="node6" class="node">
<title>[root] data.template_file.pass_through_policy_config</title>
<polygon fill="none" stroke="#000000" points="2090.3143,-180 1812.1893,-180 1812.1893,-144 2090.3143,-144 2090.3143,-180"/>
<text text-anchor="middle" x="1951.2518" y="-157.8" font-family="Times,serif" font-size="14.00" fill="#000000">data.template_file.pass_through_policy_config</text>
</g>
<!-- [root] provider.template -->
<g id="node10" class="node">
<title>[root] provider.template</title>
<polygon fill="none" stroke="#000000" points="1574.2518,-36 1471.9261,-18 1574.2518,0 1676.5775,-18 1574.2518,-36"/>
<text text-anchor="middle" x="1574.2518" y="-13.8" font-family="Times,serif" font-size="14.00" fill="#000000">provider.template</text>
</g>
<!-- [root] data.template_file.pass_through_policy_config&#45;&gt;[root] provider.template -->
<g id="edge10" class="edge">
<title>[root] data.template_file.pass_through_policy_config&#45;&gt;[root] provider.template</title>
<path fill="none" stroke="#000000" d="M1986.6872,-143.8842C2000.0859,-135.0325 2013.8716,-123.0142 2021.2518,-108 2028.3099,-93.6409 2031.8654,-83.9729 2021.2518,-72 1998.0201,-45.7929 1788.2558,-29.8147 1664.507,-22.5871"/>
<polygon fill="#000000" stroke="#000000" points="1664.465,-19.079 1654.2803,-21.9983 1664.0626,-26.0674 1664.465,-19.079"/>
</g>
<!-- [root] local.aws_account_id_databricks -->
<g id="node13" class="node">
<title>[root] local.aws_account_id_databricks</title>
<ellipse fill="none" stroke="#000000" cx="1862.2518" cy="-90" rx="149.6715" ry="18"/>
<text text-anchor="middle" x="1862.2518" y="-85.8" font-family="Times,serif" font-size="14.00" fill="#000000">[root] local.aws_account_id_databricks</text>
</g>
<!-- [root] data.template_file.pass_through_policy_config&#45;&gt;[root] local.aws_account_id_databricks -->
<g id="edge9" class="edge">
<title>[root] data.template_file.pass_through_policy_config&#45;&gt;[root] local.aws_account_id_databricks</title>
<path fill="none" stroke="#000000" d="M1928.7933,-143.8314C1917.7476,-134.8955 1904.278,-123.9987 1892.354,-114.3524"/>
<polygon fill="#000000" stroke="#000000" points="1894.3706,-111.4818 1884.3948,-107.9134 1889.9679,-116.924 1894.3706,-111.4818"/>
</g>
<!-- [root] data.template_file.unload_bucket_policy -->
<g id="node7" class="node">
<title>[root] data.template_file.unload_bucket_policy</title>
<polygon fill="none" stroke="#000000" points="1756.0732,-180 1512.4304,-180 1512.4304,-144 1756.0732,-144 1756.0732,-180"/>
<text text-anchor="middle" x="1634.2518" y="-157.8" font-family="Times,serif" font-size="14.00" fill="#000000">data.template_file.unload_bucket_policy</text>
</g>
<!-- [root] data.template_file.unload_bucket_policy&#45;&gt;[root] aws_s3_bucket.unload_bucket -->
<g id="edge11" class="edge">
<title>[root] data.template_file.unload_bucket_policy&#45;&gt;[root] aws_s3_bucket.unload_bucket</title>
<path fill="none" stroke="#000000" d="M1512.2574,-144.9411C1509.2269,-144.6129 1506.2212,-144.2984 1503.2518,-144 1236.5526,-117.2014 921.1404,-101.2023 761.3125,-94.2001"/>
<polygon fill="#000000" stroke="#000000" points="761.1548,-90.6901 751.012,-93.7519 760.8504,-97.6834 761.1548,-90.6901"/>
</g>
<!-- [root] data.template_file.unload_bucket_policy&#45;&gt;[root] provider.template -->
<g id="edge13" class="edge">
<title>[root] data.template_file.unload_bucket_policy&#45;&gt;[root] provider.template</title>
<path fill="none" stroke="#000000" d="M1530.1777,-143.9665C1492.1322,-135.0811 1455.5944,-123.0154 1444.2518,-108 1434.6078,-95.2331 1435.3693,-85.308 1444.2518,-72 1458.9842,-49.9276 1484.6076,-36.8644 1509.2324,-29.1388"/>
<polygon fill="#000000" stroke="#000000" points="1510.3185,-32.4683 1518.9581,-26.3358 1508.3799,-25.7421 1510.3185,-32.4683"/>
</g>
<!-- [root] data.template_file.unload_bucket_policy&#45;&gt;[root] local.aws_account_id_databricks -->
<g id="edge12" class="edge">
<title>[root] data.template_file.unload_bucket_policy&#45;&gt;[root] local.aws_account_id_databricks</title>
<path fill="none" stroke="#000000" d="M1691.4915,-143.9243C1724.2676,-133.574 1765.4478,-120.5697 1799.1559,-109.925"/>
<polygon fill="#000000" stroke="#000000" points="1800.4226,-113.1955 1808.9045,-106.8465 1798.3146,-106.5204 1800.4226,-113.1955"/>
</g>
<!-- [root] data.template_file.unload_policy_config&#45;&gt;[root] provider.template -->
<g id="edge14" class="edge">
<title>[root] data.template_file.unload_policy_config&#45;&gt;[root] provider.template</title>
<path fill="none" stroke="#000000" d="M1574.2518,-71.8314C1574.2518,-64.131 1574.2518,-54.9743 1574.2518,-46.4166"/>
<polygon fill="#000000" stroke="#000000" points="1577.7519,-46.4132 1574.2518,-36.4133 1570.7519,-46.4133 1577.7519,-46.4132"/>
</g>
<!-- [root] meta.count&#45;boundary (count boundary fixup) -->
<g id="node14" class="node">
<title>[root] meta.count&#45;boundary (count boundary fixup)</title>
<ellipse fill="none" stroke="#000000" cx="995.2518" cy="-234" rx="191.6931" ry="18"/>
<text text-anchor="middle" x="995.2518" y="-229.8" font-family="Times,serif" font-size="14.00" fill="#000000">[root] meta.count&#45;boundary (count boundary fixup)</text>
</g>
<!-- [root] meta.count&#45;boundary (count boundary fixup)&#45;&gt;[root] aws_iam_policy.pass_through_policy -->
<g id="edge15" class="edge">
<title>[root] meta.count&#45;boundary (count boundary fixup)&#45;&gt;[root] aws_iam_policy.pass_through_policy</title>
<path fill="none" stroke="#000000" d="M865.9695,-220.7125C771.397,-210.7097 639.7262,-196.1989 514.0253,-180.0765"/>
<polygon fill="#000000" stroke="#000000" points="514.192,-176.5692 503.8269,-178.7632 513.2979,-183.5118 514.192,-176.5692"/>
</g>
<!-- [root] meta.count&#45;boundary (count boundary fixup)&#45;&gt;[root] aws_iam_policy.unload_role_inline_policy -->
<g id="edge16" class="edge">
<title>[root] meta.count&#45;boundary (count boundary fixup)&#45;&gt;[root] aws_iam_policy.unload_role_inline_policy</title>
<path fill="none" stroke="#000000" d="M832.0235,-224.4989C686.7824,-215.4354 468.3371,-200.3122 268.6087,-180.109"/>
<polygon fill="#000000" stroke="#000000" points="268.8127,-176.6118 258.5098,-179.0815 268.1041,-183.5758 268.8127,-176.6118"/>
</g>
<!-- [root] meta.count&#45;boundary (count boundary fixup)&#45;&gt;[root] aws_s3_bucket_policy.unload_bucket_policy -->
<g id="edge17" class="edge">
<title>[root] meta.count&#45;boundary (count boundary fixup)&#45;&gt;[root] aws_s3_bucket_policy.unload_bucket_policy</title>
<path fill="none" stroke="#000000" d="M917.7078,-217.4817C868.3623,-206.9703 804.1306,-193.2878 751.8013,-182.1407"/>
<polygon fill="#000000" stroke="#000000" points="752.3489,-178.6789 741.8391,-180.0186 750.8904,-185.5253 752.3489,-178.6789"/>
</g>
<!-- [root] meta.count&#45;boundary (count boundary fixup)&#45;&gt;[root] data.template_file.pass_through_policy_config -->
<g id="edge18" class="edge">
<title>[root] meta.count&#45;boundary (count boundary fixup)&#45;&gt;[root] data.template_file.pass_through_policy_config</title>
<path fill="none" stroke="#000000" d="M1154.9849,-224.0346C1310.7814,-214.0228 1554.4179,-197.5914 1765.2518,-180 1777.2417,-178.9996 1789.6613,-177.9113 1802.1343,-176.7815"/>
<polygon fill="#000000" stroke="#000000" points="1802.5015,-180.2626 1812.1417,-175.8675 1801.8648,-173.2917 1802.5015,-180.2626"/>
</g>
<!-- [root] meta.count&#45;boundary (count boundary fixup)&#45;&gt;[root] data.template_file.unload_bucket_policy -->
<g id="edge19" class="edge">
<title>[root] meta.count&#45;boundary (count boundary fixup)&#45;&gt;[root] data.template_file.unload_bucket_policy</title>
<path fill="none" stroke="#000000" d="M1128.0101,-221.0118C1228.0759,-210.9567 1368.9567,-196.2377 1502.2469,-180.1038"/>
<polygon fill="#000000" stroke="#000000" points="1502.7338,-183.5705 1512.2386,-178.8899 1501.8895,-176.6216 1502.7338,-183.5705"/>
</g>
<!-- [root] var.aws_access_key -->
<g id="node15" class="node">
<title>[root] var.aws_access_key</title>
<ellipse fill="none" stroke="#000000" cx="914.2518" cy="-162" rx="103.3419" ry="18"/>
<text text-anchor="middle" x="914.2518" y="-157.8" font-family="Times,serif" font-size="14.00" fill="#000000">[root] var.aws_access_key</text>
</g>
<!-- [root] meta.count&#45;boundary (count boundary fixup)&#45;&gt;[root] var.aws_access_key -->
<g id="edge20" class="edge">
<title>[root] meta.count&#45;boundary (count boundary fixup)&#45;&gt;[root] var.aws_access_key</title>
<path fill="none" stroke="#000000" d="M974.8121,-215.8314C964.7805,-206.9144 952.5521,-196.0447 941.717,-186.4135"/>
<polygon fill="#000000" stroke="#000000" points="943.9244,-183.6928 934.125,-179.665 939.2738,-188.9246 943.9244,-183.6928"/>
</g>
<!-- [root] var.aws_secret_key -->
<g id="node16" class="node">
<title>[root] var.aws_secret_key</title>
<ellipse fill="none" stroke="#000000" cx="1137.2518" cy="-162" rx="101.4124" ry="18"/>
<text text-anchor="middle" x="1137.2518" y="-157.8" font-family="Times,serif" font-size="14.00" fill="#000000">[root] var.aws_secret_key</text>
</g>
<!-- [root] meta.count&#45;boundary (count boundary fixup)&#45;&gt;[root] var.aws_secret_key -->
<g id="edge21" class="edge">
<title>[root] meta.count&#45;boundary (count boundary fixup)&#45;&gt;[root] var.aws_secret_key</title>
<path fill="none" stroke="#000000" d="M1030.3529,-216.2022C1049.7252,-206.3797 1073.9362,-194.1037 1094.416,-183.7196"/>
<polygon fill="#000000" stroke="#000000" points="1096.1961,-186.7412 1103.5323,-179.0972 1093.0304,-180.4979 1096.1961,-186.7412"/>
</g>
<!-- [root] var.db_deployment_role -->
<g id="node17" class="node">
<title>[root] var.db_deployment_role</title>
<ellipse fill="none" stroke="#000000" cx="1375.2518" cy="-162" rx="118.8192" ry="18"/>
<text text-anchor="middle" x="1375.2518" y="-157.8" font-family="Times,serif" font-size="14.00" fill="#000000">[root] var.db_deployment_role</text>
</g>
<!-- [root] meta.count&#45;boundary (count boundary fixup)&#45;&gt;[root] var.db_deployment_role -->
<g id="edge22" class="edge">
<title>[root] meta.count&#45;boundary (count boundary fixup)&#45;&gt;[root] var.db_deployment_role</title>
<path fill="none" stroke="#000000" d="M1080.5312,-217.8418C1143.3633,-205.9368 1228.4152,-189.8217 1291.0026,-177.963"/>
<polygon fill="#000000" stroke="#000000" points="1291.6742,-181.3981 1300.8478,-176.0976 1290.371,-174.5205 1291.6742,-181.3981"/>
</g>
<!-- [root] provider.aws (close) -->
<g id="node18" class="node">
<title>[root] provider.aws (close)</title>
<ellipse fill="none" stroke="#000000" cx="576.2518" cy="-234" rx="104.3276" ry="18"/>
<text text-anchor="middle" x="576.2518" y="-229.8" font-family="Times,serif" font-size="14.00" fill="#000000">[root] provider.aws (close)</text>
</g>
<!-- [root] provider.aws (close)&#45;&gt;[root] aws_iam_policy.pass_through_policy -->
<g id="edge23" class="edge">
<title>[root] provider.aws (close)&#45;&gt;[root] aws_iam_policy.pass_through_policy</title>
<path fill="none" stroke="#000000" d="M533.5796,-217.4817C507.7715,-207.4915 474.5636,-194.6368 446.612,-183.8169"/>
<polygon fill="#000000" stroke="#000000" points="447.5544,-180.4286 436.9652,-180.0826 445.0274,-186.9566 447.5544,-180.4286"/>
</g>
<!-- [root] provider.aws (close)&#45;&gt;[root] aws_iam_policy.unload_role_inline_policy -->
<g id="edge24" class="edge">
<title>[root] provider.aws (close)&#45;&gt;[root] aws_iam_policy.unload_role_inline_policy</title>
<path fill="none" stroke="#000000" d="M499.9177,-221.7046C431.767,-210.7273 330.753,-194.4566 251.381,-181.6718"/>
<polygon fill="#000000" stroke="#000000" points="251.7492,-178.1861 241.3198,-180.0512 250.6359,-185.097 251.7492,-178.1861"/>
</g>
<!-- [root] provider.aws (close)&#45;&gt;[root] aws_s3_bucket_policy.unload_bucket_policy -->
<g id="edge25" class="edge">
<title>[root] provider.aws (close)&#45;&gt;[root] aws_s3_bucket_policy.unload_bucket_policy</title>
<path fill="none" stroke="#000000" d="M596.2743,-216.2022C606.2266,-207.3557 618.4179,-196.5191 629.2767,-186.8668"/>
<polygon fill="#000000" stroke="#000000" points="631.7482,-189.3527 636.897,-180.0931 627.0976,-184.1208 631.7482,-189.3527"/>
</g>
<!-- [root] provider.template (close) -->
<g id="node19" class="node">
<title>[root] provider.template (close)</title>
<ellipse fill="none" stroke="#000000" cx="1709.2518" cy="-234" rx="120.715" ry="18"/>
<text text-anchor="middle" x="1709.2518" y="-229.8" font-family="Times,serif" font-size="14.00" fill="#000000">[root] provider.template (close)</text>
</g>
<!-- [root] provider.template (close)&#45;&gt;[root] data.template_file.pass_through_policy_config -->
<g id="edge26" class="edge">
<title>[root] provider.template (close)&#45;&gt;[root] data.template_file.pass_through_policy_config</title>
<path fill="none" stroke="#000000" d="M1763.5613,-217.8418C1798.2285,-207.5276 1843.5172,-194.0533 1880.9216,-182.9247"/>
<polygon fill="#000000" stroke="#000000" points="1882.1605,-186.2078 1890.7471,-180.0014 1880.1642,-179.4985 1882.1605,-186.2078"/>
</g>
<!-- [root] provider.template (close)&#45;&gt;[root] data.template_file.unload_bucket_policy -->
<g id="edge27" class="edge">
<title>[root] provider.template (close)&#45;&gt;[root] data.template_file.unload_bucket_policy</title>
<path fill="none" stroke="#000000" d="M1690.7125,-216.2022C1681.5868,-207.4416 1670.4281,-196.7293 1660.4479,-187.1482"/>
<polygon fill="#000000" stroke="#000000" points="1662.7366,-184.4936 1653.0988,-180.0931 1657.8888,-189.5433 1662.7366,-184.4936"/>
</g>
<!-- [root] provider.template (close)&#45;&gt;[root] data.template_file.unload_policy_config -->
<g id="edge28" class="edge">
<title>[root] provider.template (close)&#45;&gt;[root] data.template_file.unload_policy_config</title>
<path fill="none" stroke="#000000" d="M1733.6329,-216.1249C1756.0349,-197.5011 1783.2377,-167.7759 1765.2518,-144 1754.8477,-130.2467 1723.3825,-118.9932 1688.9153,-110.3872"/>
<polygon fill="#000000" stroke="#000000" points="1689.6707,-106.9692 1679.1291,-108.0302 1688.0315,-113.7746 1689.6707,-106.9692"/>
</g>
<!-- [root] root -->
<g id="node20" class="node">
<title>[root] root</title>
<ellipse fill="none" stroke="#000000" cx="995.2518" cy="-306" rx="46.8976" ry="18"/>
<text text-anchor="middle" x="995.2518" y="-301.8" font-family="Times,serif" font-size="14.00" fill="#000000">[root] root</text>
</g>
<!-- [root] root&#45;&gt;[root] meta.count&#45;boundary (count boundary fixup) -->
<g id="edge29" class="edge">
<title>[root] root&#45;&gt;[root] meta.count&#45;boundary (count boundary fixup)</title>
<path fill="none" stroke="#000000" d="M995.2518,-287.8314C995.2518,-280.131 995.2518,-270.9743 995.2518,-262.4166"/>
<polygon fill="#000000" stroke="#000000" points="998.7519,-262.4132 995.2518,-252.4133 991.7519,-262.4133 998.7519,-262.4132"/>
</g>
<!-- [root] root&#45;&gt;[root] provider.aws (close) -->
<g id="edge30" class="edge">
<title>[root] root&#45;&gt;[root] provider.aws (close)</title>
<path fill="none" stroke="#000000" d="M952.3805,-298.6331C883.8967,-286.865 748.5613,-263.6093 660.2833,-248.4398"/>
<polygon fill="#000000" stroke="#000000" points="660.7412,-244.9672 650.2929,-246.7231 659.5557,-251.8661 660.7412,-244.9672"/>
</g>
<!-- [root] root&#45;&gt;[root] provider.template (close) -->
<g id="edge31" class="edge">
<title>[root] root&#45;&gt;[root] provider.template (close)</title>
<path fill="none" stroke="#000000" d="M1040.4574,-301.4415C1151.2927,-290.2648 1439.1062,-261.2416 1598.671,-245.151"/>
<polygon fill="#000000" stroke="#000000" points="1599.3942,-248.5959 1608.9926,-244.1102 1598.6919,-241.6312 1599.3942,-248.5959"/>
</g>
</g>
</svg>
