<?xml version="1.0" encoding="UTF-8" standalone="no"?>
<!DOCTYPE svg PUBLIC "-//W3C//DTD SVG 1.1//EN"
 "http://www.w3.org/Graphics/SVG/1.1/DTD/svg11.dtd">
<!-- Generated by graphviz version 2.40.1 (20161225.0304)
 -->
<!-- Title: %3 Pages: 1 -->
<svg width="2629pt" height="548pt"
 viewBox="0.00 0.00 2628.68 548.00" xmlns="http://www.w3.org/2000/svg" xmlns:xlink="http://www.w3.org/1999/xlink">
<g id="graph0" class="graph" transform="scale(1 1) rotate(0) translate(4 544)">
<title>%3</title>
<polygon fill="#ffffff" stroke="transparent" points="-4,4 -4,-544 2624.6762,-544 2624.6762,4 -4,4"/>
<!-- [root] aws_iam_role.redshift_unload_bucket_role -->
<g id="node1" class="node">
<title>[root] aws_iam_role.redshift_unload_bucket_role</title>
<polygon fill="none" stroke="#000000" points="2144.2803,-324 1885.3135,-324 1885.3135,-288 2144.2803,-288 2144.2803,-324"/>
<text text-anchor="middle" x="2014.7969" y="-301.8" font-family="Times,serif" font-size="14.00" fill="#000000">aws_iam_role.redshift_unload_bucket_role</text>
</g>
<!-- [root] provider.aws -->
<g id="node15" class="node">
<title>[root] provider.aws</title>
<polygon fill="none" stroke="#000000" points="1595.7969,-108 1517.1885,-90 1595.7969,-72 1674.4052,-90 1595.7969,-108"/>
<text text-anchor="middle" x="1595.7969" y="-85.8" font-family="Times,serif" font-size="14.00" fill="#000000">provider.aws</text>
</g>
<!-- [root] aws_iam_role.redshift_unload_bucket_role&#45;&gt;[root] provider.aws -->
<g id="edge1" class="edge">
<title>[root] aws_iam_role.redshift_unload_bucket_role&#45;&gt;[root] provider.aws</title>
<path fill="none" stroke="#000000" d="M2018.6044,-287.952C2021.6874,-268.0677 2023.1905,-236.2316 2006.7969,-216 1961.7689,-160.4305 1753.7785,-117.4412 1652.0865,-99.3441"/>
<polygon fill="#000000" stroke="#000000" points="1652.4516,-95.8546 1641.9962,-97.5681 1651.2381,-102.7487 1652.4516,-95.8546"/>
</g>
<!-- [root] var.custom_unload_bucket_name -->
<g id="node16" class="node">
<title>[root] var.custom_unload_bucket_name</title>
<ellipse fill="none" stroke="#000000" cx="1846.7969" cy="-234" rx="151.151" ry="18"/>
<text text-anchor="middle" x="1846.7969" y="-229.8" font-family="Times,serif" font-size="14.00" fill="#000000">[root] var.custom_unload_bucket_name</text>
</g>
<!-- [root] aws_iam_role.redshift_unload_bucket_role&#45;&gt;[root] var.custom_unload_bucket_name -->
<g id="edge2" class="edge">
<title>[root] aws_iam_role.redshift_unload_bucket_role&#45;&gt;[root] var.custom_unload_bucket_name</title>
<path fill="none" stroke="#000000" d="M1972.4034,-287.8314C1949.4054,-277.9751 1920.8408,-265.7331 1896.7651,-255.4149"/>
<polygon fill="#000000" stroke="#000000" points="1898.0084,-252.14 1887.4382,-251.4177 1895.2509,-258.574 1898.0084,-252.14"/>
</g>
<!-- [root] aws_iam_role_policy_attachment.attach_s3_permissions_to_redshift_role -->
<g id="node2" class="node">
<title>[root] aws_iam_role_policy_attachment.attach_s3_permissions_to_redshift_role</title>
<polygon fill="none" stroke="#000000" points="2014.4152,-396 1583.1785,-396 1583.1785,-360 2014.4152,-360 2014.4152,-396"/>
<text text-anchor="middle" x="1798.7969" y="-373.8" font-family="Times,serif" font-size="14.00" fill="#000000">aws_iam_role_policy_attachment.attach_s3_permissions_to_redshift_role</text>
</g>
<!-- [root] aws_iam_role_policy_attachment.attach_s3_permissions_to_redshift_role&#45;&gt;[root] aws_iam_role.redshift_unload_bucket_role -->
<g id="edge3" class="edge">
<title>[root] aws_iam_role_policy_attachment.attach_s3_permissions_to_redshift_role&#45;&gt;[root] aws_iam_role.redshift_unload_bucket_role</title>
<path fill="none" stroke="#000000" d="M1853.024,-359.9243C1882.6808,-350.0387 1919.6006,-337.7321 1950.6789,-327.3726"/>
<polygon fill="#000000" stroke="#000000" points="1952.1674,-330.5659 1960.5474,-324.0831 1949.9538,-323.9251 1952.1674,-330.5659"/>
</g>
<!-- [root] aws_route.databricks_new_dest_route -->
<g id="node3" class="node">
<title>[root] aws_route.databricks_new_dest_route</title>
<polygon fill="none" stroke="#000000" points="1359.0079,-396 1128.5858,-396 1128.5858,-360 1359.0079,-360 1359.0079,-396"/>
<text text-anchor="middle" x="1243.7969" y="-373.8" font-family="Times,serif" font-size="14.00" fill="#000000">aws_route.databricks_new_dest_route</text>
</g>
<!-- [root] aws_vpc_peering_connection.redshift_vpc_to_db_vpc -->
<g id="node7" class="node">
<title>[root] aws_vpc_peering_connection.redshift_vpc_to_db_vpc</title>
<polygon fill="none" stroke="#000000" points="802.7666,-324 480.8271,-324 480.8271,-288 802.7666,-288 802.7666,-324"/>
<text text-anchor="middle" x="641.7969" y="-301.8" font-family="Times,serif" font-size="14.00" fill="#000000">aws_vpc_peering_connection.redshift_vpc_to_db_vpc</text>
</g>
<!-- [root] aws_route.databricks_new_dest_route&#45;&gt;[root] aws_vpc_peering_connection.redshift_vpc_to_db_vpc -->
<g id="edge4" class="edge">
<title>[root] aws_route.databricks_new_dest_route&#45;&gt;[root] aws_vpc_peering_connection.redshift_vpc_to_db_vpc</title>
<path fill="none" stroke="#000000" d="M1128.6354,-361.1566C1125.6597,-360.7621 1122.7094,-360.3758 1119.7969,-360 1062.0591,-352.5499 925.4403,-337.1987 812.9817,-324.7619"/>
<polygon fill="#000000" stroke="#000000" points="813.1922,-321.2639 802.8682,-323.6441 812.4231,-328.2215 813.1922,-321.2639"/>
</g>
<!-- [root] data.aws_route_table.db_vpc_rt -->
<g id="node9" class="node">
<title>[root] data.aws_route_table.db_vpc_rt</title>
<polygon fill="none" stroke="#000000" points="1341.1251,-324 1146.4687,-324 1146.4687,-288 1341.1251,-288 1341.1251,-324"/>
<text text-anchor="middle" x="1243.7969" y="-301.8" font-family="Times,serif" font-size="14.00" fill="#000000">data.aws_route_table.db_vpc_rt</text>
</g>
<!-- [root] aws_route.databricks_new_dest_route&#45;&gt;[root] data.aws_route_table.db_vpc_rt -->
<g id="edge5" class="edge">
<title>[root] aws_route.databricks_new_dest_route&#45;&gt;[root] data.aws_route_table.db_vpc_rt</title>
<path fill="none" stroke="#000000" d="M1243.7969,-359.8314C1243.7969,-352.131 1243.7969,-342.9743 1243.7969,-334.4166"/>
<polygon fill="#000000" stroke="#000000" points="1247.297,-334.4132 1243.7969,-324.4133 1240.297,-334.4133 1247.297,-334.4132"/>
</g>
<!-- [root] aws_route.redshift_new_dest_route -->
<g id="node4" class="node">
<title>[root] aws_route.redshift_new_dest_route</title>
<polygon fill="none" stroke="#000000" points="764.7426,-396 548.8511,-396 548.8511,-360 764.7426,-360 764.7426,-396"/>
<text text-anchor="middle" x="656.7969" y="-373.8" font-family="Times,serif" font-size="14.00" fill="#000000">aws_route.redshift_new_dest_route</text>
</g>
<!-- [root] aws_route.redshift_new_dest_route&#45;&gt;[root] aws_vpc_peering_connection.redshift_vpc_to_db_vpc -->
<g id="edge6" class="edge">
<title>[root] aws_route.redshift_new_dest_route&#45;&gt;[root] aws_vpc_peering_connection.redshift_vpc_to_db_vpc</title>
<path fill="none" stroke="#000000" d="M653.0117,-359.8314C651.4075,-352.131 649.4999,-342.9743 647.717,-334.4166"/>
<polygon fill="#000000" stroke="#000000" points="651.099,-333.4892 645.633,-324.4133 644.2462,-334.9169 651.099,-333.4892"/>
</g>
<!-- [root] data.aws_route_table.redshift_vpc_rt -->
<g id="node10" class="node">
<title>[root] data.aws_route_table.redshift_vpc_rt</title>
<polygon fill="none" stroke="#000000" points="223.391,-324 .2028,-324 .2028,-288 223.391,-288 223.391,-324"/>
<text text-anchor="middle" x="111.7969" y="-301.8" font-family="Times,serif" font-size="14.00" fill="#000000">data.aws_route_table.redshift_vpc_rt</text>
</g>
<!-- [root] aws_route.redshift_new_dest_route&#45;&gt;[root] data.aws_route_table.redshift_vpc_rt -->
<g id="edge7" class="edge">
<title>[root] aws_route.redshift_new_dest_route&#45;&gt;[root] data.aws_route_table.redshift_vpc_rt</title>
<path fill="none" stroke="#000000" d="M548.8463,-364.9643C465.4092,-354.7295 346.7411,-339.8282 233.7786,-324.261"/>
<polygon fill="#000000" stroke="#000000" points="233.9523,-320.7518 223.5673,-322.8498 232.994,-327.6859 233.9523,-320.7518"/>
</g>
<!-- [root] aws_s3_bucket.unload_bucket -->
<g id="node5" class="node">
<title>[root] aws_s3_bucket.unload_bucket</title>
<polygon fill="none" stroke="#000000" points="1564.7564,-396 1376.8373,-396 1376.8373,-360 1564.7564,-360 1564.7564,-396"/>
<text text-anchor="middle" x="1470.7969" y="-373.8" font-family="Times,serif" font-size="14.00" fill="#000000">aws_s3_bucket.unload_bucket</text>
</g>
<!-- [root] aws_s3_bucket.unload_bucket&#45;&gt;[root] provider.aws -->
<g id="edge8" class="edge">
<title>[root] aws_s3_bucket.unload_bucket&#45;&gt;[root] provider.aws</title>
<path fill="none" stroke="#000000" d="M1564.7074,-360.1148C1601.6542,-351.0023 1637.8799,-338.7202 1648.7969,-324 1696.6005,-259.5428 1642.4369,-159.5756 1612.7061,-114.0508"/>
<polygon fill="#000000" stroke="#000000" points="1615.5901,-112.0672 1607.1232,-105.6984 1609.7705,-115.9572 1615.5901,-112.0672"/>
</g>
<!-- [root] aws_s3_bucket.unload_bucket&#45;&gt;[root] var.custom_unload_bucket_name -->
<g id="edge9" class="edge">
<title>[root] aws_s3_bucket.unload_bucket&#45;&gt;[root] var.custom_unload_bucket_name</title>
<path fill="none" stroke="#000000" d="M1561.6772,-359.9633C1599.4995,-351.1243 1643.4446,-339.0941 1681.7969,-324 1728.1458,-305.7587 1777.8869,-277.2715 1810.4953,-257.2431"/>
<polygon fill="#000000" stroke="#000000" points="1812.5658,-260.0776 1819.2211,-251.834 1808.8776,-254.128 1812.5658,-260.0776"/>
</g>
<!-- [root] var.expire_query_results_days -->
<g id="node17" class="node">
<title>[root] var.expire_query_results_days</title>
<ellipse fill="none" stroke="#000000" cx="1499.7969" cy="-306" rx="140.0349" ry="18"/>
<text text-anchor="middle" x="1499.7969" y="-301.8" font-family="Times,serif" font-size="14.00" fill="#000000">[root] var.expire_query_results_days</text>
</g>
<!-- [root] aws_s3_bucket.unload_bucket&#45;&gt;[root] var.expire_query_results_days -->
<g id="edge10" class="edge">
<title>[root] aws_s3_bucket.unload_bucket&#45;&gt;[root] var.expire_query_results_days</title>
<path fill="none" stroke="#000000" d="M1478.1148,-359.8314C1481.2845,-351.9617 1485.0668,-342.5712 1488.5782,-333.8533"/>
<polygon fill="#000000" stroke="#000000" points="1491.8908,-334.9968 1492.3804,-324.4133 1485.3977,-332.3815 1491.8908,-334.9968"/>
</g>
<!-- [root] aws_security_group_rule.ingress_from_redshift_rule -->
<g id="node6" class="node">
<title>[root] aws_security_group_rule.ingress_from_redshift_rule</title>
<polygon fill="none" stroke="#000000" points="1110.722,-396 796.8718,-396 796.8718,-360 1110.722,-360 1110.722,-396"/>
<text text-anchor="middle" x="953.7969" y="-373.8" font-family="Times,serif" font-size="14.00" fill="#000000">aws_security_group_rule.ingress_from_redshift_rule</text>
</g>
<!-- [root] data.aws_security_group.databricks_unmanaged_sg -->
<g id="node11" class="node">
<title>[root] data.aws_security_group.databricks_unmanaged_sg</title>
<polygon fill="none" stroke="#000000" points="1128.3772,-324 821.2165,-324 821.2165,-288 1128.3772,-288 1128.3772,-324"/>
<text text-anchor="middle" x="974.7969" y="-301.8" font-family="Times,serif" font-size="14.00" fill="#000000">data.aws_security_group.databricks_unmanaged_sg</text>
</g>
<!-- [root] aws_security_group_rule.ingress_from_redshift_rule&#45;&gt;[root] data.aws_security_group.databricks_unmanaged_sg -->
<g id="edge11" class="edge">
<title>[root] aws_security_group_rule.ingress_from_redshift_rule&#45;&gt;[root] data.aws_security_group.databricks_unmanaged_sg</title>
<path fill="none" stroke="#000000" d="M959.0961,-359.8314C961.3667,-352.0463 964.0714,-342.7729 966.5909,-334.1347"/>
<polygon fill="#000000" stroke="#000000" points="969.9863,-334.9933 969.4263,-324.4133 963.2663,-333.0332 969.9863,-334.9933"/>
</g>
<!-- [root] data.aws_security_group.redshift_sg -->
<g id="node12" class="node">
<title>[root] data.aws_security_group.redshift_sg</title>
<polygon fill="none" stroke="#000000" points="462.5803,-324 241.0135,-324 241.0135,-288 462.5803,-288 462.5803,-324"/>
<text text-anchor="middle" x="351.7969" y="-301.8" font-family="Times,serif" font-size="14.00" fill="#000000">data.aws_security_group.redshift_sg</text>
</g>
<!-- [root] aws_security_group_rule.ingress_from_redshift_rule&#45;&gt;[root] data.aws_security_group.redshift_sg -->
<g id="edge12" class="edge">
<title>[root] aws_security_group_rule.ingress_from_redshift_rule&#45;&gt;[root] data.aws_security_group.redshift_sg</title>
<path fill="none" stroke="#000000" d="M797.0523,-361.9347C705.3707,-352.1764 587.145,-338.9741 472.6044,-324.0808"/>
<polygon fill="#000000" stroke="#000000" points="472.9685,-320.5987 462.5994,-322.7743 472.062,-327.5397 472.9685,-320.5987"/>
</g>
<!-- [root] data.aws_vpc.databricks_vpc -->
<g id="node13" class="node">
<title>[root] data.aws_vpc.databricks_vpc</title>
<polygon fill="none" stroke="#000000" points="1136.8457,-252 956.748,-252 956.748,-216 1136.8457,-216 1136.8457,-252"/>
<text text-anchor="middle" x="1046.7969" y="-229.8" font-family="Times,serif" font-size="14.00" fill="#000000">data.aws_vpc.databricks_vpc</text>
</g>
<!-- [root] aws_vpc_peering_connection.redshift_vpc_to_db_vpc&#45;&gt;[root] data.aws_vpc.databricks_vpc -->
<g id="edge13" class="edge">
<title>[root] aws_vpc_peering_connection.redshift_vpc_to_db_vpc&#45;&gt;[root] data.aws_vpc.databricks_vpc</title>
<path fill="none" stroke="#000000" d="M743.2116,-287.9707C805.3571,-276.9226 884.5859,-262.8375 946.5211,-251.8268"/>
<polygon fill="#000000" stroke="#000000" points="947.4652,-255.2139 956.6981,-250.0176 946.2399,-248.322 947.4652,-255.2139"/>
</g>
<!-- [root] data.aws_vpc.redshift_vpc -->
<g id="node14" class="node">
<title>[root] data.aws_vpc.redshift_vpc</title>
<polygon fill="none" stroke="#000000" points="579.5803,-252 414.0134,-252 414.0134,-216 579.5803,-216 579.5803,-252"/>
<text text-anchor="middle" x="496.7969" y="-229.8" font-family="Times,serif" font-size="14.00" fill="#000000">data.aws_vpc.redshift_vpc</text>
</g>
<!-- [root] aws_vpc_peering_connection.redshift_vpc_to_db_vpc&#45;&gt;[root] data.aws_vpc.redshift_vpc -->
<g id="edge14" class="edge">
<title>[root] aws_vpc_peering_connection.redshift_vpc_to_db_vpc&#45;&gt;[root] data.aws_vpc.redshift_vpc</title>
<path fill="none" stroke="#000000" d="M605.2073,-287.8314C586.0729,-278.3302 562.474,-266.6121 542.1847,-256.5374"/>
<polygon fill="#000000" stroke="#000000" points="543.6366,-253.3506 533.1234,-252.038 540.5234,-259.6203 543.6366,-253.3506"/>
</g>
<!-- [root] data.aws_redshift_cluster.existing_cluster -->
<g id="node8" class="node">
<title>[root] data.aws_redshift_cluster.existing_cluster</title>
<polygon fill="none" stroke="#000000" points="869.8525,-180 619.7412,-180 619.7412,-144 869.8525,-144 869.8525,-180"/>
<text text-anchor="middle" x="744.7969" y="-157.8" font-family="Times,serif" font-size="14.00" fill="#000000">data.aws_redshift_cluster.existing_cluster</text>
</g>
<!-- [root] data.aws_redshift_cluster.existing_cluster&#45;&gt;[root] provider.aws -->
<g id="edge15" class="edge">
<title>[root] data.aws_redshift_cluster.existing_cluster&#45;&gt;[root] provider.aws</title>
<path fill="none" stroke="#000000" d="M870.1132,-147.8431C883.1703,-146.4885 896.2494,-145.1814 908.7969,-144 1133.5554,-122.8375 1400.2283,-103.534 1524.914,-94.8467"/>
<polygon fill="#000000" stroke="#000000" points="1525.3558,-98.3245 1535.089,-94.1393 1524.8703,-91.3413 1525.3558,-98.3245"/>
</g>
<!-- [root] var.redshift_cluster_id -->
<g id="node18" class="node">
<title>[root] var.redshift_cluster_id</title>
<ellipse fill="none" stroke="#000000" cx="744.7969" cy="-90" rx="111.562" ry="18"/>
<text text-anchor="middle" x="744.7969" y="-85.8" font-family="Times,serif" font-size="14.00" fill="#000000">[root] var.redshift_cluster_id</text>
</g>
<!-- [root] data.aws_redshift_cluster.existing_cluster&#45;&gt;[root] var.redshift_cluster_id -->
<g id="edge16" class="edge">
<title>[root] data.aws_redshift_cluster.existing_cluster&#45;&gt;[root] var.redshift_cluster_id</title>
<path fill="none" stroke="#000000" d="M744.7969,-143.8314C744.7969,-136.131 744.7969,-126.9743 744.7969,-118.4166"/>
<polygon fill="#000000" stroke="#000000" points="748.297,-118.4132 744.7969,-108.4133 741.297,-118.4133 748.297,-118.4132"/>
</g>
<!-- [root] data.aws_route_table.db_vpc_rt&#45;&gt;[root] data.aws_vpc.databricks_vpc -->
<g id="edge17" class="edge">
<title>[root] data.aws_route_table.db_vpc_rt&#45;&gt;[root] data.aws_vpc.databricks_vpc</title>
<path fill="none" stroke="#000000" d="M1194.3397,-287.9243C1167.5258,-278.1243 1134.202,-265.945 1106.0122,-255.6422"/>
<polygon fill="#000000" stroke="#000000" points="1106.8682,-252.2286 1096.2744,-252.0831 1104.4652,-258.8033 1106.8682,-252.2286"/>
</g>
<!-- [root] data.aws_route_table.redshift_vpc_rt&#45;&gt;[root] data.aws_vpc.redshift_vpc -->
<g id="edge18" class="edge">
<title>[root] data.aws_route_table.redshift_vpc_rt&#45;&gt;[root] data.aws_vpc.redshift_vpc</title>
<path fill="none" stroke="#000000" d="M208.4517,-287.9243C268.3565,-276.7213 344.887,-262.4091 404.0483,-251.3452"/>
<polygon fill="#000000" stroke="#000000" points="404.9488,-254.7375 414.135,-249.4588 403.662,-247.8568 404.9488,-254.7375"/>
</g>
<!-- [root] data.aws_security_group.databricks_unmanaged_sg&#45;&gt;[root] data.aws_vpc.databricks_vpc -->
<g id="edge19" class="edge">
<title>[root] data.aws_security_group.databricks_unmanaged_sg&#45;&gt;[root] data.aws_vpc.databricks_vpc</title>
<path fill="none" stroke="#000000" d="M992.9655,-287.8314C1001.5121,-279.2848 1011.8526,-268.9443 1021.177,-259.6198"/>
<polygon fill="#000000" stroke="#000000" points="1023.7874,-261.9592 1028.3836,-252.4133 1018.8376,-257.0095 1023.7874,-261.9592"/>
</g>
<!-- [root] data.aws_security_group.redshift_sg&#45;&gt;[root] data.aws_vpc.redshift_vpc -->
<g id="edge20" class="edge">
<title>[root] data.aws_security_group.redshift_sg&#45;&gt;[root] data.aws_vpc.redshift_vpc</title>
<path fill="none" stroke="#000000" d="M388.3865,-287.8314C407.5208,-278.3302 431.1198,-266.6121 451.4091,-256.5374"/>
<polygon fill="#000000" stroke="#000000" points="453.0704,-259.6203 460.4704,-252.038 449.9572,-253.3506 453.0704,-259.6203"/>
</g>
<!-- [root] data.aws_vpc.databricks_vpc&#45;&gt;[root] provider.aws -->
<g id="edge21" class="edge">
<title>[root] data.aws_vpc.databricks_vpc&#45;&gt;[root] provider.aws</title>
<path fill="none" stroke="#000000" d="M1115.4949,-215.9808C1228.8703,-186.243 1452.233,-127.6561 1549.1251,-102.2418"/>
<polygon fill="#000000" stroke="#000000" points="1550.1415,-105.5936 1558.9263,-99.671 1548.3655,-98.8227 1550.1415,-105.5936"/>
</g>
<!-- [root] var.databricks_shard_name -->
<g id="node19" class="node">
<title>[root] var.databricks_shard_name</title>
<ellipse fill="none" stroke="#000000" cx="1046.7969" cy="-162" rx="128.925" ry="18"/>
<text text-anchor="middle" x="1046.7969" y="-157.8" font-family="Times,serif" font-size="14.00" fill="#000000">[root] var.databricks_shard_name</text>
</g>
<!-- [root] data.aws_vpc.databricks_vpc&#45;&gt;[root] var.databricks_shard_name -->
<g id="edge22" class="edge">
<title>[root] data.aws_vpc.databricks_vpc&#45;&gt;[root] var.databricks_shard_name</title>
<path fill="none" stroke="#000000" d="M1046.7969,-215.8314C1046.7969,-208.131 1046.7969,-198.9743 1046.7969,-190.4166"/>
<polygon fill="#000000" stroke="#000000" points="1050.297,-190.4132 1046.7969,-180.4133 1043.297,-190.4133 1050.297,-190.4132"/>
</g>
<!-- [root] data.aws_vpc.redshift_vpc&#45;&gt;[root] data.aws_redshift_cluster.existing_cluster -->
<g id="edge23" class="edge">
<title>[root] data.aws_vpc.redshift_vpc&#45;&gt;[root] data.aws_redshift_cluster.existing_cluster</title>
<path fill="none" stroke="#000000" d="M559.0576,-215.9243C593.5503,-205.9103 636.5999,-193.412 672.5668,-182.97"/>
<polygon fill="#000000" stroke="#000000" points="673.8829,-186.2325 682.5105,-180.0831 671.9312,-179.5101 673.8829,-186.2325"/>
</g>
<!-- [root] var.aws_access_key -->
<g id="node24" class="node">
<title>[root] var.aws_access_key</title>
<ellipse fill="none" stroke="#000000" cx="1387.7969" cy="-18" rx="103.3419" ry="18"/>
<text text-anchor="middle" x="1387.7969" y="-13.8" font-family="Times,serif" font-size="14.00" fill="#000000">[root] var.aws_access_key</text>
</g>
<!-- [root] provider.aws&#45;&gt;[root] var.aws_access_key -->
<g id="edge37" class="edge">
<title>[root] provider.aws&#45;&gt;[root] var.aws_access_key</title>
<path fill="none" stroke="#000000" d="M1564.2062,-79.0647C1532.3565,-68.0399 1482.5202,-50.7888 1443.93,-37.4307"/>
<polygon fill="#000000" stroke="#000000" points="1444.9738,-34.0883 1434.379,-34.1246 1442.684,-40.7032 1444.9738,-34.0883"/>
</g>
<!-- [root] var.aws_region -->
<g id="node25" class="node">
<title>[root] var.aws_region</title>
<ellipse fill="none" stroke="#000000" cx="1595.7969" cy="-18" rx="86.4791" ry="18"/>
<text text-anchor="middle" x="1595.7969" y="-13.8" font-family="Times,serif" font-size="14.00" fill="#000000">[root] var.aws_region</text>
</g>
<!-- [root] provider.aws&#45;&gt;[root] var.aws_region -->
<g id="edge38" class="edge">
<title>[root] provider.aws&#45;&gt;[root] var.aws_region</title>
<path fill="none" stroke="#000000" d="M1595.7969,-71.8314C1595.7969,-64.131 1595.7969,-54.9743 1595.7969,-46.4166"/>
<polygon fill="#000000" stroke="#000000" points="1599.297,-46.4132 1595.7969,-36.4133 1592.297,-46.4133 1599.297,-46.4132"/>
</g>
<!-- [root] var.aws_secret_key -->
<g id="node26" class="node">
<title>[root] var.aws_secret_key</title>
<ellipse fill="none" stroke="#000000" cx="1801.7969" cy="-18" rx="101.4124" ry="18"/>
<text text-anchor="middle" x="1801.7969" y="-13.8" font-family="Times,serif" font-size="14.00" fill="#000000">[root] var.aws_secret_key</text>
</g>
<!-- [root] provider.aws&#45;&gt;[root] var.aws_secret_key -->
<g id="edge39" class="edge">
<title>[root] provider.aws&#45;&gt;[root] var.aws_secret_key</title>
<path fill="none" stroke="#000000" d="M1627.0838,-79.0647C1658.6272,-68.0399 1707.9844,-50.7888 1746.2035,-37.4307"/>
<polygon fill="#000000" stroke="#000000" points="1747.3775,-40.7281 1755.6627,-34.1246 1745.0678,-34.1201 1747.3775,-40.7281"/>
</g>
<!-- [root] meta.count&#45;boundary (count boundary fixup) -->
<g id="node20" class="node">
<title>[root] meta.count&#45;boundary (count boundary fixup)</title>
<ellipse fill="none" stroke="#000000" cx="1513.7969" cy="-450" rx="191.6931" ry="18"/>
<text text-anchor="middle" x="1513.7969" y="-445.8" font-family="Times,serif" font-size="14.00" fill="#000000">[root] meta.count&#45;boundary (count boundary fixup)</text>
</g>
<!-- [root] meta.count&#45;boundary (count boundary fixup)&#45;&gt;[root] aws_iam_role_policy_attachment.attach_s3_permissions_to_redshift_role -->
<g id="edge24" class="edge">
<title>[root] meta.count&#45;boundary (count boundary fixup)&#45;&gt;[root] aws_iam_role_policy_attachment.attach_s3_permissions_to_redshift_role</title>
<path fill="none" stroke="#000000" d="M1580.6167,-433.1192C1621.5233,-422.7849 1674.1514,-409.4894 1717.4702,-398.5457"/>
<polygon fill="#000000" stroke="#000000" points="1718.5756,-401.8765 1727.4137,-396.0336 1716.861,-395.0897 1718.5756,-401.8765"/>
</g>
<!-- [root] meta.count&#45;boundary (count boundary fixup)&#45;&gt;[root] aws_route.databricks_new_dest_route -->
<g id="edge25" class="edge">
<title>[root] meta.count&#45;boundary (count boundary fixup)&#45;&gt;[root] aws_route.databricks_new_dest_route</title>
<path fill="none" stroke="#000000" d="M1449.8106,-432.937C1411.3455,-422.6796 1362.1278,-409.5549 1321.4454,-398.7063"/>
<polygon fill="#000000" stroke="#000000" points="1322.1314,-395.267 1311.5672,-396.0721 1320.3277,-402.0306 1322.1314,-395.267"/>
</g>
<!-- [root] meta.count&#45;boundary (count boundary fixup)&#45;&gt;[root] aws_route.redshift_new_dest_route -->
<g id="edge26" class="edge">
<title>[root] meta.count&#45;boundary (count boundary fixup)&#45;&gt;[root] aws_route.redshift_new_dest_route</title>
<path fill="none" stroke="#000000" d="M1377.0551,-437.3688C1355.5574,-435.4944 1333.5782,-433.6428 1312.7969,-432 1079.643,-413.5684 1020.4504,-419.9325 787.7969,-396 783.5579,-395.5639 779.2449,-395.0965 774.8909,-394.6045"/>
<polygon fill="#000000" stroke="#000000" points="775.0103,-391.0948 764.6727,-393.4151 774.201,-398.0479 775.0103,-391.0948"/>
</g>
<!-- [root] meta.count&#45;boundary (count boundary fixup)&#45;&gt;[root] aws_s3_bucket.unload_bucket -->
<g id="edge27" class="edge">
<title>[root] meta.count&#45;boundary (count boundary fixup)&#45;&gt;[root] aws_s3_bucket.unload_bucket</title>
<path fill="none" stroke="#000000" d="M1502.9462,-431.8314C1498.0946,-423.7079 1492.2752,-413.9637 1486.9289,-405.0118"/>
<polygon fill="#000000" stroke="#000000" points="1489.9261,-403.2041 1481.7937,-396.4133 1483.9162,-406.7933 1489.9261,-403.2041"/>
</g>
<!-- [root] meta.count&#45;boundary (count boundary fixup)&#45;&gt;[root] aws_security_group_rule.ingress_from_redshift_rule -->
<g id="edge28" class="edge">
<title>[root] meta.count&#45;boundary (count boundary fixup)&#45;&gt;[root] aws_security_group_rule.ingress_from_redshift_rule</title>
<path fill="none" stroke="#000000" d="M1400.4725,-435.4297C1315.1336,-424.4576 1197.317,-409.3097 1104.1097,-397.3259"/>
<polygon fill="#000000" stroke="#000000" points="1104.3866,-393.8328 1094.0219,-396.0289 1103.4939,-400.7757 1104.3866,-393.8328"/>
</g>
<!-- [root] output.role_arn_to_attach -->
<g id="node21" class="node">
<title>[root] output.role_arn_to_attach</title>
<ellipse fill="none" stroke="#000000" cx="2155.7969" cy="-378" rx="123.6211" ry="18"/>
<text text-anchor="middle" x="2155.7969" y="-373.8" font-family="Times,serif" font-size="14.00" fill="#000000">[root] output.role_arn_to_attach</text>
</g>
<!-- [root] meta.count&#45;boundary (count boundary fixup)&#45;&gt;[root] output.role_arn_to_attach -->
<g id="edge29" class="edge">
<title>[root] meta.count&#45;boundary (count boundary fixup)&#45;&gt;[root] output.role_arn_to_attach</title>
<path fill="none" stroke="#000000" d="M1646.8076,-437.0208C1749.7942,-426.7042 1895.9616,-411.4803 2023.7969,-396 2034.4325,-394.7121 2045.5408,-393.3009 2056.6027,-391.8533"/>
<polygon fill="#000000" stroke="#000000" points="2057.2775,-395.2947 2066.7335,-390.5161 2056.3614,-388.3549 2057.2775,-395.2947"/>
</g>
<!-- [root] var.custom_redshift_iam_role_name -->
<g id="node22" class="node">
<title>[root] var.custom_redshift_iam_role_name</title>
<ellipse fill="none" stroke="#000000" cx="2458.7969" cy="-378" rx="161.7588" ry="18"/>
<text text-anchor="middle" x="2458.7969" y="-373.8" font-family="Times,serif" font-size="14.00" fill="#000000">[root] var.custom_redshift_iam_role_name</text>
</g>
<!-- [root] meta.count&#45;boundary (count boundary fixup)&#45;&gt;[root] var.custom_redshift_iam_role_name -->
<g id="edge30" class="edge">
<title>[root] meta.count&#45;boundary (count boundary fixup)&#45;&gt;[root] var.custom_redshift_iam_role_name</title>
<path fill="none" stroke="#000000" d="M1676.0972,-440.393C1832.9931,-430.7039 2077.3502,-414.5547 2288.7969,-396 2303.4698,-394.7124 2318.8427,-393.2476 2334.0928,-391.7226"/>
<polygon fill="#000000" stroke="#000000" points="2334.4903,-395.2004 2344.0879,-390.7131 2333.7868,-388.2358 2334.4903,-395.2004"/>
</g>
<!-- [root] output.role_arn_to_attach&#45;&gt;[root] aws_iam_role.redshift_unload_bucket_role -->
<g id="edge31" class="edge">
<title>[root] output.role_arn_to_attach&#45;&gt;[root] aws_iam_role.redshift_unload_bucket_role</title>
<path fill="none" stroke="#000000" d="M2121.6647,-360.5708C2102.8643,-350.9706 2079.3124,-338.9441 2059.1065,-328.6262"/>
<polygon fill="#000000" stroke="#000000" points="2060.585,-325.4513 2050.0872,-324.0206 2057.4015,-331.6855 2060.585,-325.4513"/>
</g>
<!-- [root] provider.aws (close) -->
<g id="node23" class="node">
<title>[root] provider.aws (close)</title>
<ellipse fill="none" stroke="#000000" cx="1199.7969" cy="-450" rx="104.3276" ry="18"/>
<text text-anchor="middle" x="1199.7969" y="-445.8" font-family="Times,serif" font-size="14.00" fill="#000000">[root] provider.aws (close)</text>
</g>
<!-- [root] provider.aws (close)&#45;&gt;[root] aws_iam_role_policy_attachment.attach_s3_permissions_to_redshift_role -->
<g id="edge32" class="edge">
<title>[root] provider.aws (close)&#45;&gt;[root] aws_iam_role_policy_attachment.attach_s3_permissions_to_redshift_role</title>
<path fill="none" stroke="#000000" d="M1275.095,-437.4974C1287.6697,-435.5555 1300.5913,-433.6493 1312.7969,-432 1410.0033,-418.865 1518.4659,-406.5865 1608.2221,-397.067"/>
<polygon fill="#000000" stroke="#000000" points="1608.6593,-400.5403 1618.2358,-396.0081 1607.9232,-393.5791 1608.6593,-400.5403"/>
</g>
<!-- [root] provider.aws (close)&#45;&gt;[root] aws_route.databricks_new_dest_route -->
<g id="edge33" class="edge">
<title>[root] provider.aws (close)&#45;&gt;[root] aws_route.databricks_new_dest_route</title>
<path fill="none" stroke="#000000" d="M1210.8999,-431.8314C1215.8643,-423.7079 1221.819,-413.9637 1227.2897,-405.0118"/>
<polygon fill="#000000" stroke="#000000" points="1230.3163,-406.7712 1232.5443,-396.4133 1224.3433,-403.121 1230.3163,-406.7712"/>
</g>
<!-- [root] provider.aws (close)&#45;&gt;[root] aws_route.redshift_new_dest_route -->
<g id="edge34" class="edge">
<title>[root] provider.aws (close)&#45;&gt;[root] aws_route.redshift_new_dest_route</title>
<path fill="none" stroke="#000000" d="M1116.1337,-439.1895C1032.8788,-428.3952 901.4791,-411.2601 787.7969,-396 783.5734,-395.4331 779.2737,-394.8537 774.9309,-394.2667"/>
<polygon fill="#000000" stroke="#000000" points="775.1149,-390.7597 764.7355,-392.8854 774.1751,-397.6964 775.1149,-390.7597"/>
</g>
<!-- [root] provider.aws (close)&#45;&gt;[root] aws_s3_bucket.unload_bucket -->
<g id="edge35" class="edge">
<title>[root] provider.aws (close)&#45;&gt;[root] aws_s3_bucket.unload_bucket</title>
<path fill="none" stroke="#000000" d="M1256.6074,-434.9064C1296.2882,-424.3639 1349.7472,-410.1608 1393.3301,-398.5816"/>
<polygon fill="#000000" stroke="#000000" points="1394.2729,-401.9526 1403.0389,-396.0021 1392.4755,-395.1873 1394.2729,-401.9526"/>
</g>
<!-- [root] provider.aws (close)&#45;&gt;[root] aws_security_group_rule.ingress_from_redshift_rule -->
<g id="edge36" class="edge">
<title>[root] provider.aws (close)&#45;&gt;[root] aws_security_group_rule.ingress_from_redshift_rule</title>
<path fill="none" stroke="#000000" d="M1146.7214,-434.4657C1111.1741,-424.0616 1063.9591,-410.2426 1025.1356,-398.8796"/>
<polygon fill="#000000" stroke="#000000" points="1026.0388,-395.4972 1015.4583,-396.0472 1024.0725,-402.2154 1026.0388,-395.4972"/>
</g>
<!-- [root] root -->
<g id="node27" class="node">
<title>[root] root</title>
<ellipse fill="none" stroke="#000000" cx="1356.7969" cy="-522" rx="46.8976" ry="18"/>
<text text-anchor="middle" x="1356.7969" y="-517.8" font-family="Times,serif" font-size="14.00" fill="#000000">[root] root</text>
</g>
<!-- [root] root&#45;&gt;[root] meta.count&#45;boundary (count boundary fixup) -->
<g id="edge40" class="edge">
<title>[root] root&#45;&gt;[root] meta.count&#45;boundary (count boundary fixup)</title>
<path fill="none" stroke="#000000" d="M1387.0681,-508.1177C1409.4476,-497.8544 1440.3657,-483.6754 1466.0602,-471.892"/>
<polygon fill="#000000" stroke="#000000" points="1467.634,-475.0208 1475.2647,-467.6708 1464.716,-468.658 1467.634,-475.0208"/>
</g>
<!-- [root] root&#45;&gt;[root] provider.aws (close) -->
<g id="edge41" class="edge">
<title>[root] root&#45;&gt;[root] provider.aws (close)</title>
<path fill="none" stroke="#000000" d="M1326.5257,-508.1177C1303.67,-497.6361 1271.9085,-483.0703 1245.9007,-471.1432"/>
<polygon fill="#000000" stroke="#000000" points="1247.1552,-467.868 1236.6064,-466.8808 1244.2371,-474.2308 1247.1552,-467.868"/>
</g>
</g>
</svg>
