<?xml version="1.0" encoding="UTF-8" standalone="no"?>
<!DOCTYPE svg PUBLIC "-//W3C//DTD SVG 1.1//EN"
 "http://www.w3.org/Graphics/SVG/1.1/DTD/svg11.dtd">
<!-- Generated by graphviz version 2.40.1 (20161225.0304)
 -->
<!-- Title: %3 Pages: 1 -->
<svg width="2434pt" height="476pt"
 viewBox="0.00 0.00 2434.42 476.00" xmlns="http://www.w3.org/2000/svg" xmlns:xlink="http://www.w3.org/1999/xlink">
<g id="graph0" class="graph" transform="scale(1 1) rotate(0) translate(4 472)">
<title>%3</title>
<polygon fill="#ffffff" stroke="transparent" points="-4,4 -4,-472 2430.4163,-472 2430.4163,4 -4,4"/>
<!-- [root] aws_iam_instance_profile.unload_role_instance_profile -->
<g id="node1" class="node">
<title>[root] aws_iam_instance_profile.unload_role_instance_profile</title>
<polygon fill="none" stroke="#000000" points="827.843,-252 498.8898,-252 498.8898,-216 827.843,-216 827.843,-252"/>
<text text-anchor="middle" x="663.3664" y="-229.8" font-family="Times,serif" font-size="14.00" fill="#000000">aws_iam_instance_profile.unload_role_instance_profile</text>
</g>
<!-- [root] aws_iam_role.unload_role -->
<g id="node4" class="node">
<title>[root] aws_iam_role.unload_role</title>
<polygon fill="none" stroke="#000000" points="917.7668,-108 752.966,-108 752.966,-72 917.7668,-72 917.7668,-108"/>
<text text-anchor="middle" x="835.3664" y="-85.8" font-family="Times,serif" font-size="14.00" fill="#000000">aws_iam_role.unload_role</text>
</g>
<!-- [root] aws_iam_instance_profile.unload_role_instance_profile&#45;&gt;[root] aws_iam_role.unload_role -->
<g id="edge1" class="edge">
<title>[root] aws_iam_instance_profile.unload_role_instance_profile&#45;&gt;[root] aws_iam_role.unload_role</title>
<path fill="none" stroke="#000000" d="M685.1503,-215.7623C715.7798,-190.119 771.6581,-143.3372 805.9518,-114.6262"/>
<polygon fill="#000000" stroke="#000000" points="808.3385,-117.1927 813.7594,-108.0896 803.845,-111.8254 808.3385,-117.1927"/>
</g>
<!-- [root] aws_iam_policy.pass_through_policy -->
<g id="node2" class="node">
<title>[root] aws_iam_policy.pass_through_policy</title>
<polygon fill="none" stroke="#000000" points="1072.8713,-252 845.8615,-252 845.8615,-216 1072.8713,-216 1072.8713,-252"/>
<text text-anchor="middle" x="959.3664" y="-229.8" font-family="Times,serif" font-size="14.00" fill="#000000">aws_iam_policy.pass_through_policy</text>
</g>
<!-- [root] data.template_file.pass_through_policy_config -->
<g id="node11" class="node">
<title>[root] data.template_file.pass_through_policy_config</title>
<polygon fill="none" stroke="#000000" points="1141.4289,-180 863.3039,-180 863.3039,-144 1141.4289,-144 1141.4289,-180"/>
<text text-anchor="middle" x="1002.3664" y="-157.8" font-family="Times,serif" font-size="14.00" fill="#000000">data.template_file.pass_through_policy_config</text>
</g>
<!-- [root] aws_iam_policy.pass_through_policy&#45;&gt;[root] data.template_file.pass_through_policy_config -->
<g id="edge2" class="edge">
<title>[root] aws_iam_policy.pass_through_policy&#45;&gt;[root] data.template_file.pass_through_policy_config</title>
<path fill="none" stroke="#000000" d="M970.2171,-215.8314C975.0686,-207.7079 980.8881,-197.9637 986.2344,-189.0118"/>
<polygon fill="#000000" stroke="#000000" points="989.247,-190.7933 991.3696,-180.4133 983.2372,-187.2041 989.247,-190.7933"/>
</g>
<!-- [root] aws_iam_policy.unload_role_policy -->
<g id="node3" class="node">
<title>[root] aws_iam_policy.unload_role_policy</title>
<polygon fill="none" stroke="#000000" points="1651.0784,-252 1431.6544,-252 1431.6544,-216 1651.0784,-216 1651.0784,-252"/>
<text text-anchor="middle" x="1541.3664" y="-229.8" font-family="Times,serif" font-size="14.00" fill="#000000">aws_iam_policy.unload_role_policy</text>
</g>
<!-- [root] data.template_file.unload_policy_config -->
<g id="node13" class="node">
<title>[root] data.template_file.unload_policy_config</title>
<polygon fill="none" stroke="#000000" points="1662.8708,-180 1421.862,-180 1421.862,-144 1662.8708,-144 1662.8708,-180"/>
<text text-anchor="middle" x="1542.3664" y="-157.8" font-family="Times,serif" font-size="14.00" fill="#000000">data.template_file.unload_policy_config</text>
</g>
<!-- [root] aws_iam_policy.unload_role_policy&#45;&gt;[root] data.template_file.unload_policy_config -->
<g id="edge3" class="edge">
<title>[root] aws_iam_policy.unload_role_policy&#45;&gt;[root] data.template_file.unload_policy_config</title>
<path fill="none" stroke="#000000" d="M1541.6187,-215.8314C1541.7257,-208.131 1541.8529,-198.9743 1541.9717,-190.4166"/>
<polygon fill="#000000" stroke="#000000" points="1545.4713,-190.4609 1542.1107,-180.4133 1538.472,-190.3637 1545.4713,-190.4609"/>
</g>
<!-- [root] provider.aws -->
<g id="node14" class="node">
<title>[root] provider.aws</title>
<polygon fill="none" stroke="#000000" points="1068.3664,-36 989.7581,-18 1068.3664,0 1146.9747,-18 1068.3664,-36"/>
<text text-anchor="middle" x="1068.3664" y="-13.8" font-family="Times,serif" font-size="14.00" fill="#000000">provider.aws</text>
</g>
<!-- [root] aws_iam_role.unload_role&#45;&gt;[root] provider.aws -->
<g id="edge4" class="edge">
<title>[root] aws_iam_role.unload_role&#45;&gt;[root] provider.aws</title>
<path fill="none" stroke="#000000" d="M893.8614,-71.9243C934.5234,-59.3592 987.8427,-42.8829 1024.792,-31.465"/>
<polygon fill="#000000" stroke="#000000" points="1026.2345,-34.6827 1034.7554,-28.3862 1024.1678,-27.9947 1026.2345,-34.6827"/>
</g>
<!-- [root] var.custom_unload_role_name -->
<g id="node16" class="node">
<title>[root] var.custom_unload_role_name</title>
<ellipse fill="none" stroke="#000000" cx="830.3664" cy="-18" rx="141.004" ry="18"/>
<text text-anchor="middle" x="830.3664" y="-13.8" font-family="Times,serif" font-size="14.00" fill="#000000">[root] var.custom_unload_role_name</text>
</g>
<!-- [root] aws_iam_role.unload_role&#45;&gt;[root] var.custom_unload_role_name -->
<g id="edge5" class="edge">
<title>[root] aws_iam_role.unload_role&#45;&gt;[root] var.custom_unload_role_name</title>
<path fill="none" stroke="#000000" d="M834.1047,-71.8314C833.5699,-64.131 832.9341,-54.9743 832.3398,-46.4166"/>
<polygon fill="#000000" stroke="#000000" points="835.8296,-46.1467 831.6451,-36.4133 828.8464,-46.6317 835.8296,-46.1467"/>
</g>
<!-- [root] aws_iam_role_policy_attachment.attach_pass_through_policy_to_unload_role -->
<g id="node5" class="node">
<title>[root] aws_iam_role_policy_attachment.attach_pass_through_policy_to_unload_role</title>
<polygon fill="none" stroke="#000000" points="869.1399,-324 411.5929,-324 411.5929,-288 869.1399,-288 869.1399,-324"/>
<text text-anchor="middle" x="640.3664" y="-301.8" font-family="Times,serif" font-size="14.00" fill="#000000">aws_iam_role_policy_attachment.attach_pass_through_policy_to_unload_role</text>
</g>
<!-- [root] aws_iam_role_policy_attachment.attach_pass_through_policy_to_unload_role&#45;&gt;[root] aws_iam_policy.pass_through_policy -->
<g id="edge6" class="edge">
<title>[root] aws_iam_role_policy_attachment.attach_pass_through_policy_to_unload_role&#45;&gt;[root] aws_iam_policy.pass_through_policy</title>
<path fill="none" stroke="#000000" d="M720.4518,-287.9243C765.8536,-277.6769 822.7811,-264.828 869.6776,-254.2432"/>
<polygon fill="#000000" stroke="#000000" points="870.5407,-257.6365 879.5248,-252.0207 868.9995,-250.8083 870.5407,-257.6365"/>
</g>
<!-- [root] var.db_deployment_role -->
<g id="node17" class="node">
<title>[root] var.db_deployment_role</title>
<ellipse fill="none" stroke="#000000" cx="362.3664" cy="-234" rx="118.8192" ry="18"/>
<text text-anchor="middle" x="362.3664" y="-229.8" font-family="Times,serif" font-size="14.00" fill="#000000">[root] var.db_deployment_role</text>
</g>
<!-- [root] aws_iam_role_policy_attachment.attach_pass_through_policy_to_unload_role&#45;&gt;[root] var.db_deployment_role -->
<g id="edge7" class="edge">
<title>[root] aws_iam_role_policy_attachment.attach_pass_through_policy_to_unload_role&#45;&gt;[root] var.db_deployment_role</title>
<path fill="none" stroke="#000000" d="M570.5741,-287.9243C528.4352,-277.0106 474.9034,-263.1463 432.6724,-252.2087"/>
<polygon fill="#000000" stroke="#000000" points="433.3033,-248.7567 422.7451,-249.6377 431.5482,-255.5331 433.3033,-248.7567"/>
</g>
<!-- [root] aws_iam_role_policy_attachment.attach_unload_policy_to_unload_role -->
<g id="node6" class="node">
<title>[root] aws_iam_role_policy_attachment.attach_unload_policy_to_unload_role</title>
<polygon fill="none" stroke="#000000" points="1596.5813,-324 1176.1515,-324 1176.1515,-288 1596.5813,-288 1596.5813,-324"/>
<text text-anchor="middle" x="1386.3664" y="-301.8" font-family="Times,serif" font-size="14.00" fill="#000000">aws_iam_role_policy_attachment.attach_unload_policy_to_unload_role</text>
</g>
<!-- [root] aws_iam_role_policy_attachment.attach_unload_policy_to_unload_role&#45;&gt;[root] aws_iam_policy.unload_role_policy -->
<g id="edge8" class="edge">
<title>[root] aws_iam_role_policy_attachment.attach_unload_policy_to_unload_role&#45;&gt;[root] aws_iam_policy.unload_role_policy</title>
<path fill="none" stroke="#000000" d="M1425.4794,-287.8314C1446.1176,-278.2446 1471.6148,-266.4008 1493.4337,-256.2655"/>
<polygon fill="#000000" stroke="#000000" points="1494.9398,-259.4251 1502.5346,-252.038 1491.9908,-253.0766 1494.9398,-259.4251"/>
</g>
<!-- [root] aws_iam_role_policy_attachment.attach_unload_policy_to_unload_role&#45;&gt;[root] aws_iam_role.unload_role -->
<g id="edge9" class="edge">
<title>[root] aws_iam_role_policy_attachment.attach_unload_policy_to_unload_role&#45;&gt;[root] aws_iam_role.unload_role</title>
<path fill="none" stroke="#000000" d="M1294.8039,-287.9754C1253.791,-278.8716 1205.135,-266.6352 1162.3664,-252 1125.4768,-239.3765 1119.7311,-227.139 1082.3664,-216 984.0534,-186.6913 928.7496,-250.6511 854.3664,-180 837.8774,-164.3384 833.8539,-138.2514 833.5297,-118.1841"/>
<polygon fill="#000000" stroke="#000000" points="837.0312,-118.0882 833.6625,-108.0432 830.0318,-117.9964 837.0312,-118.0882"/>
</g>
<!-- [root] aws_s3_bucket.unload_bucket -->
<g id="node7" class="node">
<title>[root] aws_s3_bucket.unload_bucket</title>
<polygon fill="none" stroke="#000000" points="1614.3259,-108 1426.4068,-108 1426.4068,-72 1614.3259,-72 1614.3259,-108"/>
<text text-anchor="middle" x="1520.3664" y="-85.8" font-family="Times,serif" font-size="14.00" fill="#000000">aws_s3_bucket.unload_bucket</text>
</g>
<!-- [root] aws_s3_bucket.unload_bucket&#45;&gt;[root] provider.aws -->
<g id="edge10" class="edge">
<title>[root] aws_s3_bucket.unload_bucket&#45;&gt;[root] provider.aws</title>
<path fill="none" stroke="#000000" d="M1426.4373,-75.0378C1335.5283,-60.5568 1200.6965,-39.0791 1125.0838,-27.0346"/>
<polygon fill="#000000" stroke="#000000" points="1125.2443,-23.5162 1114.8182,-25.3994 1124.1431,-30.429 1125.2443,-23.5162"/>
</g>
<!-- [root] var.custom_unload_bucket_name -->
<g id="node18" class="node">
<title>[root] var.custom_unload_bucket_name</title>
<ellipse fill="none" stroke="#000000" cx="1405.3664" cy="-18" rx="151.151" ry="18"/>
<text text-anchor="middle" x="1405.3664" y="-13.8" font-family="Times,serif" font-size="14.00" fill="#000000">[root] var.custom_unload_bucket_name</text>
</g>
<!-- [root] aws_s3_bucket.unload_bucket&#45;&gt;[root] var.custom_unload_bucket_name -->
<g id="edge11" class="edge">
<title>[root] aws_s3_bucket.unload_bucket&#45;&gt;[root] var.custom_unload_bucket_name</title>
<path fill="none" stroke="#000000" d="M1491.347,-71.8314C1476.5255,-62.5518 1458.3264,-51.1576 1442.4939,-41.2451"/>
<polygon fill="#000000" stroke="#000000" points="1444.3113,-38.2535 1433.9781,-35.9134 1440.5966,-44.1866 1444.3113,-38.2535"/>
</g>
<!-- [root] var.expire_query_results_days -->
<g id="node19" class="node">
<title>[root] var.expire_query_results_days</title>
<ellipse fill="none" stroke="#000000" cx="1714.3664" cy="-18" rx="140.0349" ry="18"/>
<text text-anchor="middle" x="1714.3664" y="-13.8" font-family="Times,serif" font-size="14.00" fill="#000000">[root] var.expire_query_results_days</text>
</g>
<!-- [root] aws_s3_bucket.unload_bucket&#45;&gt;[root] var.expire_query_results_days -->
<g id="edge12" class="edge">
<title>[root] aws_s3_bucket.unload_bucket&#45;&gt;[root] var.expire_query_results_days</title>
<path fill="none" stroke="#000000" d="M1569.3208,-71.8314C1596.5317,-61.7325 1630.4911,-49.129 1658.7086,-38.6565"/>
<polygon fill="#000000" stroke="#000000" points="1660.2722,-41.8095 1668.4295,-35.0487 1657.8365,-35.2469 1660.2722,-41.8095"/>
</g>
<!-- [root] aws_s3_bucket_policy.unload_bucket_policy -->
<g id="node8" class="node">
<title>[root] aws_s3_bucket_policy.unload_bucket_policy</title>
<polygon fill="none" stroke="#000000" points="1157.4029,-324 887.3299,-324 887.3299,-288 1157.4029,-288 1157.4029,-324"/>
<text text-anchor="middle" x="1022.3664" y="-301.8" font-family="Times,serif" font-size="14.00" fill="#000000">aws_s3_bucket_policy.unload_bucket_policy</text>
</g>
<!-- [root] data.template_file.unload_bucket_policy -->
<g id="node12" class="node">
<title>[root] data.template_file.unload_bucket_policy</title>
<polygon fill="none" stroke="#000000" points="1403.1877,-180 1159.545,-180 1159.545,-144 1403.1877,-144 1403.1877,-180"/>
<text text-anchor="middle" x="1281.3664" y="-157.8" font-family="Times,serif" font-size="14.00" fill="#000000">data.template_file.unload_bucket_policy</text>
</g>
<!-- [root] aws_s3_bucket_policy.unload_bucket_policy&#45;&gt;[root] data.template_file.unload_bucket_policy -->
<g id="edge13" class="edge">
<title>[root] aws_s3_bucket_policy.unload_bucket_policy&#45;&gt;[root] data.template_file.unload_bucket_policy</title>
<path fill="none" stroke="#000000" d="M1047.9947,-287.9151C1075.5563,-268.8528 1121.0037,-238.525 1162.3664,-216 1183.4459,-204.5207 1207.4265,-193.3068 1228.3102,-184.0994"/>
<polygon fill="#000000" stroke="#000000" points="1229.9007,-187.2242 1237.666,-180.0164 1227.1008,-180.8085 1229.9007,-187.2242"/>
</g>
<!-- [root] data.aws_caller_identity.current -->
<g id="node9" class="node">
<title>[root] data.aws_caller_identity.current</title>
<polygon fill="none" stroke="#000000" points="1162.5444,-108 968.1884,-108 968.1884,-72 1162.5444,-72 1162.5444,-108"/>
<text text-anchor="middle" x="1065.3664" y="-85.8" font-family="Times,serif" font-size="14.00" fill="#000000">data.aws_caller_identity.current</text>
</g>
<!-- [root] data.aws_caller_identity.current&#45;&gt;[root] provider.aws -->
<g id="edge14" class="edge">
<title>[root] data.aws_caller_identity.current&#45;&gt;[root] provider.aws</title>
<path fill="none" stroke="#000000" d="M1066.1234,-71.8314C1066.4492,-64.0125 1066.8376,-54.6923 1067.1988,-46.0221"/>
<polygon fill="#000000" stroke="#000000" points="1070.7006,-46.0505 1067.62,-35.9134 1063.7066,-45.759 1070.7006,-46.0505"/>
</g>
<!-- [root] data.aws_iam_instance_profile.unload_role_instance_profile -->
<g id="node10" class="node">
<title>[root] data.aws_iam_instance_profile.unload_role_instance_profile</title>
<polygon fill="none" stroke="#000000" points="393.1604,-324 37.5724,-324 37.5724,-288 393.1604,-288 393.1604,-324"/>
<text text-anchor="middle" x="215.3664" y="-301.8" font-family="Times,serif" font-size="14.00" fill="#000000">data.aws_iam_instance_profile.unload_role_instance_profile</text>
</g>
<!-- [root] data.aws_iam_instance_profile.unload_role_instance_profile&#45;&gt;[root] aws_iam_role.unload_role -->
<g id="edge15" class="edge">
<title>[root] data.aws_iam_instance_profile.unload_role_instance_profile&#45;&gt;[root] aws_iam_role.unload_role</title>
<path fill="none" stroke="#000000" d="M213.8165,-287.7629C213.1597,-267.4026 215.4955,-234.8446 234.3664,-216 304.79,-145.6748 592.1791,-110.9077 742.5917,-97.2392"/>
<polygon fill="#000000" stroke="#000000" points="743.0908,-100.7086 752.7386,-96.3303 742.4662,-93.7366 743.0908,-100.7086"/>
</g>
<!-- [root] data.template_file.pass_through_policy_config&#45;&gt;[root] aws_iam_role.unload_role -->
<g id="edge16" class="edge">
<title>[root] data.template_file.pass_through_policy_config&#45;&gt;[root] aws_iam_role.unload_role</title>
<path fill="none" stroke="#000000" d="M960.2252,-143.8314C937.89,-134.2018 910.2728,-122.295 886.6954,-112.1299"/>
<polygon fill="#000000" stroke="#000000" points="887.7731,-108.7831 877.2045,-108.038 885.0017,-115.2112 887.7731,-108.7831"/>
</g>
<!-- [root] data.template_file.pass_through_policy_config&#45;&gt;[root] data.aws_caller_identity.current -->
<g id="edge17" class="edge">
<title>[root] data.template_file.pass_through_policy_config&#45;&gt;[root] data.aws_caller_identity.current</title>
<path fill="none" stroke="#000000" d="M1018.264,-143.8314C1025.5941,-135.454 1034.4324,-125.3531 1042.4633,-116.1749"/>
<polygon fill="#000000" stroke="#000000" points="1045.3037,-118.2438 1049.2548,-108.4133 1040.0357,-113.6343 1045.3037,-118.2438"/>
</g>
<!-- [root] provider.template -->
<g id="node15" class="node">
<title>[root] provider.template</title>
<polygon fill="none" stroke="#000000" points="1283.3664,-108 1181.0407,-90 1283.3664,-72 1385.6921,-90 1283.3664,-108"/>
<text text-anchor="middle" x="1283.3664" y="-85.8" font-family="Times,serif" font-size="14.00" fill="#000000">provider.template</text>
</g>
<!-- [root] data.template_file.pass_through_policy_config&#45;&gt;[root] provider.template -->
<g id="edge18" class="edge">
<title>[root] data.template_file.pass_through_policy_config&#45;&gt;[root] provider.template</title>
<path fill="none" stroke="#000000" d="M1072.9119,-143.9243C1122.3355,-131.2606 1187.2643,-114.624 1231.8608,-103.1972"/>
<polygon fill="#000000" stroke="#000000" points="1232.7966,-106.5705 1241.6149,-100.6979 1231.0591,-99.7896 1232.7966,-106.5705"/>
</g>
<!-- [root] data.template_file.unload_bucket_policy&#45;&gt;[root] aws_iam_role.unload_role -->
<g id="edge19" class="edge">
<title>[root] data.template_file.unload_bucket_policy&#45;&gt;[root] aws_iam_role.unload_role</title>
<path fill="none" stroke="#000000" d="M1169.685,-143.9707C1095.1685,-131.9411 998.3483,-116.311 928.0937,-104.9694"/>
<polygon fill="#000000" stroke="#000000" points="928.3569,-101.4667 917.9268,-103.3281 927.2412,-108.3772 928.3569,-101.4667"/>
</g>
<!-- [root] data.template_file.unload_bucket_policy&#45;&gt;[root] aws_s3_bucket.unload_bucket -->
<g id="edge20" class="edge">
<title>[root] data.template_file.unload_bucket_policy&#45;&gt;[root] aws_s3_bucket.unload_bucket</title>
<path fill="none" stroke="#000000" d="M1341.3677,-143.9243C1374.6086,-133.9103 1416.0959,-121.412 1450.7576,-110.97"/>
<polygon fill="#000000" stroke="#000000" points="1451.7751,-114.3189 1460.3404,-108.0831 1449.7559,-107.6165 1451.7751,-114.3189"/>
</g>
<!-- [root] data.template_file.unload_bucket_policy&#45;&gt;[root] data.aws_caller_identity.current -->
<g id="edge21" class="edge">
<title>[root] data.template_file.unload_bucket_policy&#45;&gt;[root] data.aws_caller_identity.current</title>
<path fill="none" stroke="#000000" d="M1227.1393,-143.9243C1197.4824,-134.0387 1160.5627,-121.7321 1129.4843,-111.3726"/>
<polygon fill="#000000" stroke="#000000" points="1130.2095,-107.9251 1119.6158,-108.0831 1127.9958,-114.5659 1130.2095,-107.9251"/>
</g>
<!-- [root] data.template_file.unload_bucket_policy&#45;&gt;[root] provider.template -->
<g id="edge22" class="edge">
<title>[root] data.template_file.unload_bucket_policy&#45;&gt;[root] provider.template</title>
<path fill="none" stroke="#000000" d="M1281.8711,-143.8314C1282.0883,-136.0125 1282.3472,-126.6923 1282.588,-118.0221"/>
<polygon fill="#000000" stroke="#000000" points="1286.0897,-118.0068 1282.8688,-107.9134 1279.0924,-117.8123 1286.0897,-118.0068"/>
</g>
<!-- [root] data.template_file.unload_policy_config&#45;&gt;[root] aws_s3_bucket.unload_bucket -->
<g id="edge23" class="edge">
<title>[root] data.template_file.unload_policy_config&#45;&gt;[root] aws_s3_bucket.unload_bucket</title>
<path fill="none" stroke="#000000" d="M1536.8149,-143.8314C1534.4361,-136.0463 1531.6026,-126.7729 1528.9631,-118.1347"/>
<polygon fill="#000000" stroke="#000000" points="1532.2622,-116.954 1525.9927,-108.4133 1525.5677,-118.9996 1532.2622,-116.954"/>
</g>
<!-- [root] data.template_file.unload_policy_config&#45;&gt;[root] provider.template -->
<g id="edge24" class="edge">
<title>[root] data.template_file.unload_policy_config&#45;&gt;[root] provider.template</title>
<path fill="none" stroke="#000000" d="M1477.3441,-143.9243C1432.6308,-131.4943 1374.1489,-115.2368 1333.1346,-103.8352"/>
<polygon fill="#000000" stroke="#000000" points="1333.9353,-100.4251 1323.3632,-101.1188 1332.0604,-107.1694 1333.9353,-100.4251"/>
</g>
<!-- [root] meta.count&#45;boundary (count boundary fixup) -->
<g id="node20" class="node">
<title>[root] meta.count&#45;boundary (count boundary fixup)</title>
<ellipse fill="none" stroke="#000000" cx="1538.3664" cy="-378" rx="191.6931" ry="18"/>
<text text-anchor="middle" x="1538.3664" y="-373.8" font-family="Times,serif" font-size="14.00" fill="#000000">[root] meta.count&#45;boundary (count boundary fixup)</text>
</g>
<!-- [root] meta.count&#45;boundary (count boundary fixup)&#45;&gt;[root] aws_iam_role_policy_attachment.attach_pass_through_policy_to_unload_role -->
<g id="edge25" class="edge">
<title>[root] meta.count&#45;boundary (count boundary fixup)&#45;&gt;[root] aws_iam_role_policy_attachment.attach_pass_through_policy_to_unload_role</title>
<path fill="none" stroke="#000000" d="M1392.5892,-366.3118C1252.7185,-355.0973 1039.1539,-337.9741 875.2719,-324.8343"/>
<polygon fill="#000000" stroke="#000000" points="875.2925,-321.3248 865.0447,-324.0143 874.7329,-328.3024 875.2925,-321.3248"/>
</g>
<!-- [root] meta.count&#45;boundary (count boundary fixup)&#45;&gt;[root] aws_iam_role_policy_attachment.attach_unload_policy_to_unload_role -->
<g id="edge26" class="edge">
<title>[root] meta.count&#45;boundary (count boundary fixup)&#45;&gt;[root] aws_iam_role_policy_attachment.attach_unload_policy_to_unload_role</title>
<path fill="none" stroke="#000000" d="M1500.7934,-360.2022C1480.5761,-350.6256 1455.4355,-338.7169 1433.873,-328.5031"/>
<polygon fill="#000000" stroke="#000000" points="1435.0987,-325.211 1424.563,-324.0931 1432.102,-331.5371 1435.0987,-325.211"/>
</g>
<!-- [root] meta.count&#45;boundary (count boundary fixup)&#45;&gt;[root] aws_s3_bucket_policy.unload_bucket_policy -->
<g id="edge27" class="edge">
<title>[root] meta.count&#45;boundary (count boundary fixup)&#45;&gt;[root] aws_s3_bucket_policy.unload_bucket_policy</title>
<path fill="none" stroke="#000000" d="M1431.1376,-363.0378C1352.8867,-352.1191 1246.1293,-337.2227 1161.3386,-325.3915"/>
<polygon fill="#000000" stroke="#000000" points="1161.7612,-321.9166 1151.3734,-324.001 1160.7937,-328.8494 1161.7612,-321.9166"/>
</g>
<!-- [root] meta.count&#45;boundary (count boundary fixup)&#45;&gt;[root] data.aws_iam_instance_profile.unload_role_instance_profile -->
<g id="edge28" class="edge">
<title>[root] meta.count&#45;boundary (count boundary fixup)&#45;&gt;[root] data.aws_iam_instance_profile.unload_role_instance_profile</title>
<path fill="none" stroke="#000000" d="M1357.1971,-372.0966C1135.0516,-364.24 746.8029,-348.5086 403.6516,-324.0728"/>
<polygon fill="#000000" stroke="#000000" points="403.7368,-320.57 393.5125,-323.3473 403.2372,-327.5522 403.7368,-320.57"/>
</g>
<!-- [root] output.result -->
<g id="node21" class="node">
<title>[root] output.result</title>
<ellipse fill="none" stroke="#000000" cx="1691.3664" cy="-306" rx="76.8244" ry="18"/>
<text text-anchor="middle" x="1691.3664" y="-301.8" font-family="Times,serif" font-size="14.00" fill="#000000">[root] output.result</text>
</g>
<!-- [root] meta.count&#45;boundary (count boundary fixup)&#45;&gt;[root] output.result -->
<g id="edge29" class="edge">
<title>[root] meta.count&#45;boundary (count boundary fixup)&#45;&gt;[root] output.result</title>
<path fill="none" stroke="#000000" d="M1576.1866,-360.2022C1597.9638,-349.9541 1625.4161,-337.0354 1648.0568,-326.381"/>
<polygon fill="#000000" stroke="#000000" points="1649.5557,-329.5439 1657.1136,-322.119 1646.5751,-323.2101 1649.5557,-329.5439"/>
</g>
<!-- [root] var.aws_access_key -->
<g id="node22" class="node">
<title>[root] var.aws_access_key</title>
<ellipse fill="none" stroke="#000000" cx="2110.3664" cy="-306" rx="103.3419" ry="18"/>
<text text-anchor="middle" x="2110.3664" y="-301.8" font-family="Times,serif" font-size="14.00" fill="#000000">[root] var.aws_access_key</text>
</g>
<!-- [root] meta.count&#45;boundary (count boundary fixup)&#45;&gt;[root] var.aws_access_key -->
<g id="edge30" class="edge">
<title>[root] meta.count&#45;boundary (count boundary fixup)&#45;&gt;[root] var.aws_access_key</title>
<path fill="none" stroke="#000000" d="M1665.1799,-364.4895C1757.4399,-354.3172 1885.3005,-339.5111 1997.3664,-324 2006.3259,-322.7599 2015.673,-321.3915 2024.9863,-319.9797"/>
<polygon fill="#000000" stroke="#000000" points="2025.7052,-323.4105 2035.059,-318.4348 2024.6439,-316.4914 2025.7052,-323.4105"/>
</g>
<!-- [root] var.aws_region -->
<g id="node23" class="node">
<title>[root] var.aws_region</title>
<ellipse fill="none" stroke="#000000" cx="2318.3664" cy="-306" rx="86.4791" ry="18"/>
<text text-anchor="middle" x="2318.3664" y="-301.8" font-family="Times,serif" font-size="14.00" fill="#000000">[root] var.aws_region</text>
</g>
<!-- [root] meta.count&#45;boundary (count boundary fixup)&#45;&gt;[root] var.aws_region -->
<g id="edge31" class="edge">
<title>[root] meta.count&#45;boundary (count boundary fixup)&#45;&gt;[root] var.aws_region</title>
<path fill="none" stroke="#000000" d="M1708.2547,-369.6313C1846.979,-361.5874 2047.9,-347.176 2222.3664,-324 2230.2537,-322.9523 2238.4748,-321.6839 2246.6423,-320.311"/>
<polygon fill="#000000" stroke="#000000" points="2247.2976,-323.7497 2256.5524,-318.5923 2246.1013,-316.8526 2247.2976,-323.7497"/>
</g>
<!-- [root] var.aws_secret_key -->
<g id="node24" class="node">
<title>[root] var.aws_secret_key</title>
<ellipse fill="none" stroke="#000000" cx="1887.3664" cy="-306" rx="101.4124" ry="18"/>
<text text-anchor="middle" x="1887.3664" y="-301.8" font-family="Times,serif" font-size="14.00" fill="#000000">[root] var.aws_secret_key</text>
</g>
<!-- [root] meta.count&#45;boundary (count boundary fixup)&#45;&gt;[root] var.aws_secret_key -->
<g id="edge32" class="edge">
<title>[root] meta.count&#45;boundary (count boundary fixup)&#45;&gt;[root] var.aws_secret_key</title>
<path fill="none" stroke="#000000" d="M1617.9966,-361.572C1675.8809,-349.6302 1753.775,-333.5604 1810.9094,-321.7734"/>
<polygon fill="#000000" stroke="#000000" points="1811.8808,-325.1467 1820.9674,-319.6984 1810.4664,-318.2911 1811.8808,-325.1467"/>
</g>
<!-- [root] output.result&#45;&gt;[root] aws_iam_instance_profile.unload_role_instance_profile -->
<g id="edge33" class="edge">
<title>[root] output.result&#45;&gt;[root] aws_iam_instance_profile.unload_role_instance_profile</title>
<path fill="none" stroke="#000000" d="M1636.9946,-293.2535C1626.5474,-291.1929 1615.6562,-289.3092 1605.3664,-288 1269.2651,-245.2372 1179.3013,-277.0793 838.333,-252.1195"/>
<polygon fill="#000000" stroke="#000000" points="838.4034,-248.6152 828.1715,-251.3644 837.8846,-255.596 838.4034,-248.6152"/>
</g>
<!-- [root] output.result&#45;&gt;[root] aws_s3_bucket.unload_bucket -->
<g id="edge34" class="edge">
<title>[root] output.result&#45;&gt;[root] aws_s3_bucket.unload_bucket</title>
<path fill="none" stroke="#000000" d="M1694.8761,-287.8951C1700.0967,-255.2908 1705.9964,-186.1796 1672.3664,-144 1662.7962,-131.9968 1633.5451,-120.3706 1603.2256,-110.9999"/>
<polygon fill="#000000" stroke="#000000" points="1603.9518,-107.5637 1593.3676,-108.0392 1601.9382,-114.2678 1603.9518,-107.5637"/>
</g>
<!-- [root] provider.aws (close) -->
<g id="node25" class="node">
<title>[root] provider.aws (close)</title>
<ellipse fill="none" stroke="#000000" cx="831.3664" cy="-378" rx="104.3276" ry="18"/>
<text text-anchor="middle" x="831.3664" y="-373.8" font-family="Times,serif" font-size="14.00" fill="#000000">[root] provider.aws (close)</text>
</g>
<!-- [root] provider.aws (close)&#45;&gt;[root] aws_iam_instance_profile.unload_role_instance_profile -->
<g id="edge35" class="edge">
<title>[root] provider.aws (close)&#45;&gt;[root] aws_iam_instance_profile.unload_role_instance_profile</title>
<path fill="none" stroke="#000000" d="M728.8259,-374.7899C517.6586,-367.679 51.9401,-349.2122 28.3664,-324 -26.1463,-265.6984 -57.2732,-301.4106 488.4327,-252.1641"/>
<polygon fill="#000000" stroke="#000000" points="488.9083,-255.6355 498.5516,-251.2472 488.2765,-248.664 488.9083,-255.6355"/>
</g>
<!-- [root] provider.aws (close)&#45;&gt;[root] aws_iam_role_policy_attachment.attach_pass_through_policy_to_unload_role -->
<g id="edge36" class="edge">
<title>[root] provider.aws (close)&#45;&gt;[root] aws_iam_role_policy_attachment.attach_pass_through_policy_to_unload_role</title>
<path fill="none" stroke="#000000" d="M787.5471,-361.4817C760.9295,-351.4479 726.6467,-338.5245 697.866,-327.6752"/>
<polygon fill="#000000" stroke="#000000" points="698.9273,-324.335 688.3355,-324.0826 696.4582,-330.885 698.9273,-324.335"/>
</g>
<!-- [root] provider.aws (close)&#45;&gt;[root] aws_iam_role_policy_attachment.attach_unload_policy_to_unload_role -->
<g id="edge37" class="edge">
<title>[root] provider.aws (close)&#45;&gt;[root] aws_iam_role_policy_attachment.attach_unload_policy_to_unload_role</title>
<path fill="none" stroke="#000000" d="M914.7558,-367.1819C999.9039,-356.1357 1133.9017,-338.7522 1237.3394,-325.3332"/>
<polygon fill="#000000" stroke="#000000" points="1238.1016,-328.7638 1247.5682,-324.0063 1237.201,-321.8219 1238.1016,-328.7638"/>
</g>
<!-- [root] provider.aws (close)&#45;&gt;[root] aws_s3_bucket_policy.unload_bucket_policy -->
<g id="edge38" class="edge">
<title>[root] provider.aws (close)&#45;&gt;[root] aws_s3_bucket_policy.unload_bucket_policy</title>
<path fill="none" stroke="#000000" d="M875.1857,-361.4817C901.8033,-351.4479 936.0861,-338.5245 964.8668,-327.6752"/>
<polygon fill="#000000" stroke="#000000" points="966.2746,-330.885 974.3973,-324.0826 963.8054,-324.335 966.2746,-330.885"/>
</g>
<!-- [root] provider.aws (close)&#45;&gt;[root] data.aws_iam_instance_profile.unload_role_instance_profile -->
<g id="edge39" class="edge">
<title>[root] provider.aws (close)&#45;&gt;[root] data.aws_iam_instance_profile.unload_role_instance_profile</title>
<path fill="none" stroke="#000000" d="M745.0656,-367.9129C650.7155,-356.885 497.3199,-338.9556 379.8235,-325.2223"/>
<polygon fill="#000000" stroke="#000000" points="379.9825,-321.7171 369.6437,-324.0324 379.1698,-328.6698 379.9825,-321.7171"/>
</g>
<!-- [root] provider.template (close) -->
<g id="node26" class="node">
<title>[root] provider.template (close)</title>
<ellipse fill="none" stroke="#000000" cx="1292.3664" cy="-234" rx="120.715" ry="18"/>
<text text-anchor="middle" x="1292.3664" y="-229.8" font-family="Times,serif" font-size="14.00" fill="#000000">[root] provider.template (close)</text>
</g>
<!-- [root] provider.template (close)&#45;&gt;[root] data.template_file.pass_through_policy_config -->
<g id="edge40" class="edge">
<title>[root] provider.template (close)&#45;&gt;[root] data.template_file.pass_through_policy_config</title>
<path fill="none" stroke="#000000" d="M1230.1541,-218.5542C1187.7474,-208.0256 1131.1333,-193.9697 1084.9556,-182.5049"/>
<polygon fill="#000000" stroke="#000000" points="1085.5178,-179.0383 1074.969,-180.0255 1083.831,-185.832 1085.5178,-179.0383"/>
</g>
<!-- [root] provider.template (close)&#45;&gt;[root] data.template_file.unload_bucket_policy -->
<g id="edge41" class="edge">
<title>[root] provider.template (close)&#45;&gt;[root] data.template_file.unload_bucket_policy</title>
<path fill="none" stroke="#000000" d="M1289.5906,-215.8314C1288.4142,-208.131 1287.0153,-198.9743 1285.7078,-190.4166"/>
<polygon fill="#000000" stroke="#000000" points="1289.1497,-189.7699 1284.1795,-180.4133 1282.23,-190.8272 1289.1497,-189.7699"/>
</g>
<!-- [root] provider.template (close)&#45;&gt;[root] data.template_file.unload_policy_config -->
<g id="edge42" class="edge">
<title>[root] provider.template (close)&#45;&gt;[root] data.template_file.unload_policy_config</title>
<path fill="none" stroke="#000000" d="M1348.1601,-217.9314C1384.1123,-207.5772 1431.2178,-194.0108 1470.0323,-182.8322"/>
<polygon fill="#000000" stroke="#000000" points="1471.0692,-186.1759 1479.7099,-180.0451 1469.1319,-179.4493 1471.0692,-186.1759"/>
</g>
<!-- [root] root -->
<g id="node27" class="node">
<title>[root] root</title>
<ellipse fill="none" stroke="#000000" cx="1538.3664" cy="-450" rx="46.8976" ry="18"/>
<text text-anchor="middle" x="1538.3664" y="-445.8" font-family="Times,serif" font-size="14.00" fill="#000000">[root] root</text>
</g>
<!-- [root] root&#45;&gt;[root] meta.count&#45;boundary (count boundary fixup) -->
<g id="edge43" class="edge">
<title>[root] root&#45;&gt;[root] meta.count&#45;boundary (count boundary fixup)</title>
<path fill="none" stroke="#000000" d="M1538.3664,-431.8314C1538.3664,-424.131 1538.3664,-414.9743 1538.3664,-406.4166"/>
<polygon fill="#000000" stroke="#000000" points="1541.8665,-406.4132 1538.3664,-396.4133 1534.8665,-406.4133 1541.8665,-406.4132"/>
</g>
<!-- [root] root&#45;&gt;[root] provider.aws (close) -->
<g id="edge44" class="edge">
<title>[root] root&#45;&gt;[root] provider.aws (close)</title>
<path fill="none" stroke="#000000" d="M1493.0649,-445.3865C1380.635,-433.9368 1086.7093,-404.0038 931.1923,-388.1661"/>
<polygon fill="#000000" stroke="#000000" points="931.4554,-384.6749 921.1522,-387.1437 930.7461,-391.6389 931.4554,-384.6749"/>
</g>
<!-- [root] root&#45;&gt;[root] provider.template (close) -->
<g id="edge45" class="edge">
<title>[root] root&#45;&gt;[root] provider.template (close)</title>
<path fill="none" stroke="#000000" d="M1585.1915,-448.7695C1782.7691,-442.7898 2532.7386,-411.7874 2413.3664,-288 2375.1242,-248.3434 1477.2501,-256.7841 1422.3664,-252 1410.8397,-250.9952 1398.7707,-249.6808 1386.8281,-248.2191"/>
<polygon fill="#000000" stroke="#000000" points="1387.1999,-244.7384 1376.8407,-246.9602 1386.3245,-251.6834 1387.1999,-244.7384"/>
</g>
</g>
</svg>
